<svg width="65" height="56" viewBox="0 0 65 56" fill="none" xmlns="http://www.w3.org/2000/svg">
<path d="M65 38C65 47.9411 56.9411 56 47 56L20 56C17.2386 56 15 53.7614 15 51L15 17C15 11.4772 19.4772 7 25 7L60 7C62.7614 7 65 9.23858 65 12L65 38Z" fill="#E8EAF5"/>
<path d="M28.3117 23.6451C28.0709 23.6451 27.8473 23.5789 27.6487 23.4724V23.4753C27.6487 23.8541 27.5014 24.2099 27.2343 24.4763C26.9671 24.7435 26.6116 24.8907 26.2332 24.8907C25.9889 24.8907 25.7625 24.8229 25.5617 24.7136C25.5415 25.0601 25.4029 25.3841 25.1558 25.6315C24.8886 25.8987 24.5331 26.0459 24.1545 26.0459C23.4022 26.0459 22.7913 25.4545 22.7473 24.7133C22.5145 24.8392 22.2513 24.9051 21.9799 24.8877C21.2398 24.8392 20.6603 24.1998 20.6603 23.4317V17.065L19.9353 18.321C19.6592 18.8014 19.1423 19.0996 18.5858 19.0996C18.3147 19.0996 18.0468 19.0285 17.8095 18.8925C17.5141 18.7213 17.3028 18.4463 17.2149 18.1174C17.1265 17.7883 17.1722 17.444 17.3431 17.1491C17.3433 17.1491 19.715 13.0419 19.8597 12.7896C19.8769 12.7516 19.9259 12.6416 19.9676 12.5478C20.0075 12.4583 20.0416 12.3664 20.0744 12.2741C20.7896 10.2548 22.5607 9.00047 24.6966 9.00047C27.4703 9.00047 29.7268 11.4474 29.7268 14.4551L29.727 22.2294C29.727 22.6078 29.58 22.9633 29.3131 23.2307C29.0459 23.4979 28.6904 23.6451 28.3116 23.6451L28.3117 23.6451ZM24.6966 9.75261C22.8613 9.75261 21.3984 10.7893 20.7833 12.5256C20.744 12.6359 20.703 12.7461 20.6552 12.8536C20.5164 13.1648 20.5164 13.1648 20.4773 13.2096L20.4721 13.2051C20.2784 13.5705 19.7031 14.5668 17.9943 17.5255C17.9241 17.6468 17.9055 17.7877 17.9413 17.9225C17.9776 18.0572 18.0645 18.1708 18.1849 18.2403C18.5586 18.4549 19.0703 18.3164 19.2833 17.9453L20.7108 15.4739C20.7961 15.3266 20.9685 15.2543 21.1339 15.2991C21.2983 15.3431 21.4126 15.4923 21.4126 15.6624V23.4319C21.4126 23.7985 21.6892 24.1149 22.0292 24.1372C22.2252 24.1476 22.408 24.0819 22.5454 23.9448C22.6702 23.8199 22.739 23.6536 22.739 23.4757V18.3943C22.739 18.1865 22.9075 18.0181 23.1153 18.0181C23.3231 18.0181 23.4915 18.1863 23.4915 18.3943L23.4913 24.6307C23.4913 24.9963 23.7889 25.2939 24.1545 25.2939C24.3321 25.2939 24.499 25.2251 24.6241 25.1002C24.7489 24.9751 24.8177 24.8083 24.8177 24.6307V18.3943C24.8177 18.1865 24.9859 18.0181 25.194 18.0181C25.4018 18.0181 25.5702 18.1863 25.5702 18.3943L25.57 23.4172V23.4757C25.57 23.8411 25.8675 24.1386 26.2334 24.1386C26.4108 24.1386 26.5772 24.0696 26.703 23.9443C26.8278 23.8196 26.8966 23.6533 26.8966 23.4754V18.394C26.8966 18.1862 27.0649 18.0178 27.2729 18.0178C27.4807 18.0178 27.6491 18.186 27.6491 18.394L27.6487 22.2296C27.6487 22.5955 27.9462 22.893 28.3116 22.893C28.4895 22.893 28.6558 22.824 28.7807 22.6994C28.906 22.574 28.9746 22.4072 28.9746 22.2296L28.9748 14.4552C28.9748 11.8625 27.0557 9.75269 24.6966 9.75269L24.6966 9.75261Z" fill="#14103E"/>
<path d="M13.5291 29.048L18.9888 25.7727C19.6471 25.3774 20.4941 25.5454 20.9162 26.1553C21.0703 26.3775 21.149 26.6364 21.1613 26.9001C21.3648 26.7938 21.5863 26.7361 21.8117 26.7361C21.9272 26.7361 22.0431 26.7505 22.1576 26.779C22.5244 26.8706 22.8335 27.0999 23.0279 27.424C23.2225 27.7487 23.2793 28.1291 23.1877 28.4955C23.1031 28.8346 22.8969 29.1199 22.6102 29.3157C22.8107 29.4339 22.9836 29.5953 23.1066 29.8008C23.3012 30.1254 23.358 30.5057 23.2666 30.8725C23.1749 31.2389 22.9457 31.548 22.621 31.7429L22.6192 31.744C22.8161 31.8621 22.986 32.0218 23.1076 32.2242C23.3024 32.5488 23.3592 32.9293 23.2675 33.2961C23.1756 33.6627 22.9464 33.9718 22.6222 34.1664L15.9558 38.1657C14.7116 38.9119 13.2733 39.1694 11.9064 38.8902C10.5272 38.6084 9.38497 37.8157 8.69046 36.6579C7.59138 34.8261 7.75609 32.6619 9.11949 31.0101C9.18192 30.9347 9.24341 30.8579 9.29925 30.7783C9.35839 30.6942 9.42742 30.5952 9.45098 30.5613C9.5921 30.3092 11.8949 26.1603 11.8946 26.1608C12.1272 25.7412 12.563 25.5037 13.0125 25.5039C13.2222 25.5039 13.4349 25.5555 13.6312 25.6644C13.8682 25.7968 14.0673 25.9898 14.2065 26.2223C14.4928 26.6994 14.5029 27.2964 14.2334 27.7796L13.5291 29.048ZM13.5618 26.6091C13.4888 26.4873 13.3884 26.3902 13.2657 26.3214C13.012 26.181 12.6925 26.2724 12.5528 26.5252C10.905 29.4937 10.3434 30.5054 10.1266 30.8654L10.1315 30.8666C10.1134 30.9269 10.1134 30.9269 9.91502 31.2103C9.84764 31.3062 9.77437 31.3983 9.69969 31.489C8.52732 32.9094 8.39119 34.6969 9.33521 36.2709C9.91997 37.2458 10.8864 37.9142 12.0566 38.1531C13.2395 38.3937 14.4863 38.1699 15.5684 37.5206L22.2355 33.5211C22.3876 33.4299 22.4951 33.285 22.538 33.1133C22.5808 32.9417 22.5542 32.7634 22.4628 32.6112C22.2748 32.2979 21.8665 32.1949 21.5532 32.3836L18.2642 34.3568C18.0861 34.4637 17.8548 34.4062 17.748 34.2279C17.6411 34.0498 17.6988 33.8187 17.8769 33.7117L21.1661 31.7386L22.2343 31.0977C22.3865 31.0063 22.4941 30.8614 22.537 30.6901C22.5799 30.5184 22.5533 30.3398 22.4619 30.1878C22.2736 29.8743 21.8653 29.7723 21.5522 29.9603L17.1948 32.5742C17.0163 32.6814 16.7856 32.6235 16.6787 32.4454C16.5717 32.2673 16.6296 32.0361 16.8075 31.9292L22.1554 28.7211C22.3076 28.6296 22.415 28.485 22.4579 28.3132C22.5007 28.1417 22.4741 27.9634 22.3829 27.8112C22.2918 27.6592 22.1469 27.5518 21.9751 27.5089C21.8024 27.466 21.6248 27.4927 21.4731 27.5836L20.4831 28.1775C20.4829 28.1775 20.4829 28.1778 20.4826 28.1778H20.4824L16.1252 30.7917C15.9467 30.8992 15.7158 30.8412 15.6091 30.6629C15.5021 30.4848 15.5601 30.2536 15.7379 30.1467L20.0953 27.5327C20.2475 27.4413 20.3552 27.2964 20.398 27.1251C20.4452 26.9371 20.4094 26.7449 20.2977 26.5837C20.104 26.3036 19.6898 26.2291 19.3758 26.4179L12.7136 30.4146C12.5678 30.5017 12.3809 30.4805 12.2587 30.3625C12.1362 30.2442 12.1086 30.0583 12.1911 29.9097L13.5764 27.4137C13.7154 27.1642 13.71 26.8561 13.5618 26.6092L13.5618 26.6091Z" fill="#14103E"/>
<path d="M39.6181 36.6581C38.9238 37.8161 37.7819 38.6086 36.4025 38.8904C35.0353 39.1691 33.5974 38.9121 32.353 38.1659L25.686 34.1665C25.3616 33.9719 25.1321 33.6627 25.0402 33.2957C24.949 32.9293 25.006 32.5488 25.2004 32.2246C25.3217 32.022 25.4918 31.8623 25.689 31.7442L25.6871 31.7431C25.3627 31.5485 25.1333 31.2393 25.0419 30.8727C24.95 30.5062 25.007 30.1254 25.2016 29.8008C25.3269 29.5923 25.4987 29.4293 25.6947 29.3136C25.4101 29.1178 25.2051 28.8334 25.1208 28.496C25.0289 28.1292 25.0859 27.7487 25.2805 27.4245C25.4749 27.1001 25.7842 26.8709 26.1508 26.7792C26.2653 26.7505 26.3815 26.7363 26.4965 26.7363C26.7222 26.7366 26.9436 26.7938 27.1472 26.9003C27.1597 26.6367 27.2381 26.3778 27.3922 26.1556C27.8146 25.5461 28.6609 25.3774 29.3201 25.773L34.7796 29.0478L34.0759 27.7802C33.8059 27.2963 33.8158 26.6993 34.1021 26.222C34.2415 25.9897 34.4408 25.7967 34.679 25.6632C34.8748 25.5548 35.0869 25.5034 35.296 25.5034C35.7453 25.5037 36.1817 25.7407 36.4139 26.1603C37.2235 27.6189 38.7511 30.3697 38.8585 30.5618C38.8813 30.595 38.9504 30.6939 39.0095 30.778C39.0658 30.8579 39.1266 30.9342 39.1895 31.0101C40.5527 32.6626 40.7171 34.8265 39.6181 36.6581L39.6181 36.6581ZM38.6091 31.4896C38.5341 31.3989 38.4606 31.3063 38.3937 31.2109C38.1902 30.922 38.185 30.9145 38.1697 30.8389C37.9317 30.4452 37.3512 29.4001 35.7555 26.5253C35.6156 26.2729 35.2975 26.1808 35.0443 26.3208C34.9196 26.3905 34.8195 26.4878 34.7465 26.6096C34.5985 26.8563 34.5928 27.1645 34.7326 27.4147L36.1174 29.9099C36.2001 30.0588 36.1725 30.2444 36.0503 30.3627C35.9282 30.4812 35.7416 30.5019 35.5951 30.4148L28.9329 26.4181C28.6189 26.2298 28.2049 26.3036 28.0108 26.5839C27.8991 26.7451 27.8635 26.9373 27.9102 27.1251C27.9531 27.2966 28.0607 27.4413 28.2132 27.5327C28.2136 27.5329 28.2139 27.5334 28.2143 27.5336L32.5703 30.1469C32.7484 30.2538 32.8062 30.4847 32.6992 30.6631C32.5922 30.8409 32.3616 30.8991 32.183 30.7919L26.8352 27.5838C26.6834 27.4929 26.5048 27.466 26.3333 27.5091C26.1613 27.552 26.0167 27.6595 25.9255 27.8119C25.8341 27.9638 25.8077 28.1422 25.8501 28.3137C25.893 28.4852 26.0007 28.6301 26.1529 28.7215L27.1935 29.3456L31.5005 31.9297C31.6786 32.0367 31.7363 32.2675 31.6293 32.4459C31.5224 32.6238 31.2917 32.6817 31.1131 32.5748L26.7562 29.9608C26.4429 29.7723 26.0348 29.8746 25.8464 30.1884C25.755 30.3406 25.7286 30.5189 25.771 30.6904C25.8139 30.862 25.9215 31.0066 26.0739 31.0983L27.1422 31.7391L30.4308 33.7122C30.609 33.8192 30.6667 34.0501 30.5597 34.2284C30.4528 34.4063 30.2221 34.4647 30.0435 34.3573L26.7548 32.3841C26.6031 32.2932 26.4252 32.2663 26.2528 32.3095C26.0813 32.3523 25.9361 32.4598 25.845 32.6117C25.7538 32.7639 25.7272 32.9425 25.7696 33.1138C25.8124 33.2853 25.9201 33.43 26.0725 33.5216L32.7395 37.5211C33.8214 38.1702 35.0691 38.3949 36.2514 38.1537C37.4213 37.9148 38.3878 37.2464 38.9725 36.2715C39.9175 34.6972 39.7816 32.9095 38.6095 31.4895L38.6091 31.4896Z" fill="#14103E"/>
</svg>
