<svg width="22" height="21" viewBox="0 0 22 21" fill="none" xmlns="http://www.w3.org/2000/svg">
<path d="M4.0625 12.4133C3.35417 11.4933 3 11.0325 3 9.66667C3 8.3 3.35417 7.84083 4.0625 6.92C5.47667 5.08333 7.84833 3 11.3333 3C14.8183 3 17.19 5.08333 18.6042 6.92C19.3125 7.84167 19.6667 8.30083 19.6667 9.66667C19.6667 11.0333 19.3125 11.4925 18.6042 12.4133C17.19 14.25 14.8183 16.3333 11.3333 16.3333C7.84833 16.3333 5.47667 14.25 4.0625 12.4133Z" stroke="#747474" stroke-width="1.5"/>
<path d="M13.8333 9.66663C13.8333 10.3297 13.5699 10.9656 13.1011 11.4344C12.6322 11.9032 11.9964 12.1666 11.3333 12.1666C10.6703 12.1666 10.0344 11.9032 9.56555 11.4344C9.0967 10.9656 8.83331 10.3297 8.83331 9.66663C8.83331 9.00358 9.0967 8.3677 9.56555 7.89886C10.0344 7.43002 10.6703 7.16663 11.3333 7.16663C11.9964 7.16663 12.6322 7.43002 13.1011 7.89886C13.5699 8.3677 13.8333 9.00358 13.8333 9.66663Z" stroke="#747474" stroke-width="1.5"/>
</svg>
