<svg width="536" height="404" viewBox="0 0 536 404" fill="none" xmlns="http://www.w3.org/2000/svg">
<path d="M507.637 254.07C507.317 242.297 508.231 222.221 497.91 213.954C488.843 206.697 481.792 216.546 479.247 224.492C473.083 243.768 475.977 265.022 475.996 284.92C475.996 285.222 475.996 285.523 475.996 285.862C475.515 300.51 473.752 316.354 475.355 330.974C475.355 330.974 473.781 316.326 462.281 322.604C450.782 328.881 468.031 361.824 468.031 361.824C468.031 361.824 454.439 351.889 448.162 360.259C441.884 368.629 456.004 378.036 456.004 378.036C456.004 378.036 442.93 374.379 442.93 378.036C442.93 381.693 447.115 384.832 459.142 386.406H523.972C523.972 386.406 534.434 380.647 532.342 374.379C530.25 368.111 519.259 371.721 519.259 371.721C519.259 371.721 535.999 351.324 534.953 342.435C533.907 333.547 512.463 344.009 512.463 344.009C512.463 344.009 529.194 301.65 526.055 282.827C523.586 268.001 512.077 278.115 505.809 283.845C507.284 273.992 507.896 264.029 507.637 254.07Z" fill="#92E3A9" stroke="white" stroke-linecap="round" stroke-linejoin="round"/>
<path opacity="0.5" d="M507.637 254.07C507.317 242.297 508.231 222.221 497.91 213.954C488.843 206.697 481.792 216.546 479.247 224.492C473.083 243.768 475.977 265.022 475.996 284.92C475.996 285.222 475.996 285.523 475.996 285.862C475.515 300.51 473.752 316.354 475.355 330.974C475.355 330.974 473.781 316.326 462.281 322.604C450.782 328.881 468.031 361.824 468.031 361.824C468.031 361.824 454.439 351.889 448.162 360.259C441.884 368.629 456.004 378.036 456.004 378.036C456.004 378.036 442.93 374.379 442.93 378.036C442.93 381.693 447.115 384.832 459.142 386.406H523.972C523.972 386.406 534.434 380.647 532.342 374.379C530.25 368.111 519.259 371.721 519.259 371.721C519.259 371.721 535.999 351.324 534.953 342.435C533.907 333.547 512.463 344.009 512.463 344.009C512.463 344.009 529.194 301.65 526.055 282.827C523.586 268.001 512.077 278.115 505.809 283.845C507.284 273.992 507.896 264.029 507.637 254.07Z" fill="white"/>
<path d="M486.835 385.84L491.548 242.033" stroke="white" stroke-linecap="round" stroke-linejoin="round"/>
<path d="M489.455 325.705L514.028 302.697" stroke="white" stroke-linecap="round" stroke-linejoin="round"/>
<path d="M500.955 315.243L506.186 300.604" stroke="white" stroke-linecap="round" stroke-linejoin="round"/>
<path d="M469.058 343.482L487.881 363.879" stroke="white" stroke-linecap="round" stroke-linejoin="round"/>
<path d="M519.259 354.99L487.881 371.202" stroke="white" stroke-linecap="round" stroke-linejoin="round"/>
<path d="M502.529 364.397L514.028 363.879" stroke="white" stroke-linecap="round" stroke-linejoin="round"/>
<path d="M486.835 385.84L491.548 242.033" stroke="#92E3A9" stroke-linecap="round" stroke-linejoin="round"/>
<path d="M489.455 325.705L514.028 302.697" stroke="#92E3A9" stroke-linecap="round" stroke-linejoin="round"/>
<path d="M500.955 315.243L506.186 300.604" stroke="#92E3A9" stroke-linecap="round" stroke-linejoin="round"/>
<path d="M469.058 343.482L487.881 363.879" stroke="#92E3A9" stroke-linecap="round" stroke-linejoin="round"/>
<path d="M519.259 354.99L487.881 371.202" stroke="#92E3A9" stroke-linecap="round" stroke-linejoin="round"/>
<path d="M502.529 364.397L514.028 363.879" stroke="#92E3A9" stroke-linecap="round" stroke-linejoin="round"/>
<g opacity="0.8">
<path d="M486.835 385.84L491.548 242.033" stroke="white" stroke-linecap="round" stroke-linejoin="round"/>
<path d="M489.455 325.705L514.028 302.697" stroke="white" stroke-linecap="round" stroke-linejoin="round"/>
<path d="M500.955 315.243L506.186 300.604" stroke="white" stroke-linecap="round" stroke-linejoin="round"/>
<path d="M469.058 343.481L487.881 363.879" stroke="white" stroke-linecap="round" stroke-linejoin="round"/>
<path d="M519.259 354.99L487.881 371.202" stroke="white" stroke-linecap="round" stroke-linejoin="round"/>
<path d="M502.529 364.397L514.028 363.879" stroke="white" stroke-linecap="round" stroke-linejoin="round"/>
</g>
<path d="M397.009 356.781C397.009 371.4 408.593 383.258 408.593 383.258C408.593 383.258 420.177 371.4 420.177 356.781C420.177 342.162 408.593 330.305 408.593 330.305C408.593 330.305 397.009 342.153 397.009 356.781Z" fill="#92E3A9"/>
<path d="M388.978 379.337C394.633 385.68 404.191 386.368 404.191 386.368C404.191 386.368 404.653 376.764 399.035 370.42C393.418 364.077 383.822 363.389 383.822 363.389C383.822 363.389 383.351 372.993 388.978 379.337Z" fill="#92E3A9"/>
<path d="M418.499 370.203C412.589 376.282 412.627 385.897 412.627 385.897C412.627 385.897 422.232 385.642 428.132 379.553C434.033 373.464 434.014 363.859 434.014 363.859C434.014 363.859 424.4 364.114 418.499 370.203Z" fill="#92E3A9"/>
<g opacity="0.5">
<path d="M397.009 356.781C397.009 371.4 408.593 383.258 408.593 383.258C408.593 383.258 420.177 371.4 420.177 356.781C420.177 342.162 408.593 330.305 408.593 330.305C408.593 330.305 397.009 342.153 397.009 356.781Z" fill="white"/>
<path d="M408.593 383.258V330.305" stroke="white" stroke-linecap="round" stroke-linejoin="round"/>
<path d="M408.593 349.128L402.108 343.463" stroke="white" stroke-linecap="round" stroke-linejoin="round"/>
<path d="M408.697 357.874L416.727 346.243" stroke="white" stroke-linecap="round" stroke-linejoin="round"/>
<path d="M408.593 362.918L399.016 354.378" stroke="white" stroke-linecap="round" stroke-linejoin="round"/>
<path d="M408.697 369.713L418.169 361.277" stroke="white" stroke-linecap="round" stroke-linejoin="round"/>
<path d="M408.697 375.585L401.279 369.713" stroke="white" stroke-linecap="round" stroke-linejoin="round"/>
<path d="M388.978 379.337C394.633 385.68 404.191 386.368 404.191 386.368C404.191 386.368 404.653 376.764 399.035 370.42C393.418 364.077 383.822 363.389 383.822 363.389C383.822 363.389 383.351 372.993 388.978 379.337Z" fill="white"/>
<path d="M404.191 386.368L383.822 363.389" stroke="white" stroke-linecap="round" stroke-linejoin="round"/>
<path d="M391.061 371.561L386.066 371.598" stroke="white" stroke-linecap="round" stroke-linejoin="round"/>
<path d="M394.473 375.312L393.484 367.178" stroke="white" stroke-linecap="round" stroke-linejoin="round"/>
<path d="M396.368 377.546L388.931 377.518" stroke="white" stroke-linecap="round" stroke-linejoin="round"/>
<path d="M399.026 380.448L399.884 373.144" stroke="white" stroke-linecap="round" stroke-linejoin="round"/>
<path d="M401.288 382.994L395.812 383.305" stroke="white" stroke-linecap="round" stroke-linejoin="round"/>
<path d="M418.499 370.203C412.589 376.282 412.627 385.897 412.627 385.897C412.627 385.897 422.232 385.642 428.132 379.553C434.033 373.464 434.014 363.859 434.014 363.859C434.014 363.859 424.4 364.114 418.499 370.203Z" fill="white"/>
<path d="M412.627 385.897L434.014 363.859" stroke="white" stroke-linecap="round" stroke-linejoin="round"/>
<path d="M426.407 371.693L426.002 366.716" stroke="white" stroke-linecap="round" stroke-linejoin="round"/>
<path d="M422.92 375.378L430.96 373.775" stroke="white" stroke-linecap="round" stroke-linejoin="round"/>
<path d="M420.837 377.433L420.309 370.015" stroke="white" stroke-linecap="round" stroke-linejoin="round"/>
<path d="M418.132 380.298L425.484 380.618" stroke="white" stroke-linecap="round" stroke-linejoin="round"/>
<path d="M415.766 382.739L415.049 377.31" stroke="white" stroke-linecap="round" stroke-linejoin="round"/>
</g>
<path d="M408.593 383.258V330.305" stroke="#92E3A9" stroke-linecap="round" stroke-linejoin="round"/>
<path d="M408.593 349.128L402.108 343.463" stroke="#92E3A9" stroke-linecap="round" stroke-linejoin="round"/>
<path d="M408.697 357.874L416.727 346.243" stroke="#92E3A9" stroke-linecap="round" stroke-linejoin="round"/>
<path d="M408.593 362.918L399.016 354.378" stroke="#92E3A9" stroke-linecap="round" stroke-linejoin="round"/>
<path d="M408.697 369.713L418.169 361.277" stroke="#92E3A9" stroke-linecap="round" stroke-linejoin="round"/>
<path d="M408.697 375.585L401.279 369.713" stroke="#92E3A9" stroke-linecap="round" stroke-linejoin="round"/>
<g opacity="0.7">
<path d="M408.593 383.258V330.305" stroke="white" stroke-linecap="round" stroke-linejoin="round"/>
<path d="M408.593 349.128L402.108 343.463" stroke="white" stroke-linecap="round" stroke-linejoin="round"/>
<path d="M408.697 357.874L416.727 346.243" stroke="white" stroke-linecap="round" stroke-linejoin="round"/>
<path d="M408.593 362.918L399.016 354.378" stroke="white" stroke-linecap="round" stroke-linejoin="round"/>
<path d="M408.697 369.713L418.169 361.277" stroke="white" stroke-linecap="round" stroke-linejoin="round"/>
<path d="M408.697 375.585L401.279 369.713" stroke="white" stroke-linecap="round" stroke-linejoin="round"/>
</g>
<path d="M404.191 386.368L383.822 363.389" stroke="#92E3A9" stroke-linecap="round" stroke-linejoin="round"/>
<path d="M391.061 371.561L386.066 371.598" stroke="#92E3A9" stroke-linecap="round" stroke-linejoin="round"/>
<path d="M394.473 375.312L393.484 367.178" stroke="#92E3A9" stroke-linecap="round" stroke-linejoin="round"/>
<path d="M396.368 377.546L388.931 377.518" stroke="#92E3A9" stroke-linecap="round" stroke-linejoin="round"/>
<path d="M399.026 380.449L399.883 373.145" stroke="#92E3A9" stroke-linecap="round" stroke-linejoin="round"/>
<path d="M401.288 382.994L395.812 383.305" stroke="#92E3A9" stroke-linecap="round" stroke-linejoin="round"/>
<g opacity="0.7">
<path d="M404.191 386.368L383.822 363.389" stroke="white" stroke-linecap="round" stroke-linejoin="round"/>
<path d="M391.061 371.562L386.066 371.599" stroke="white" stroke-linecap="round" stroke-linejoin="round"/>
<path d="M394.473 375.312L393.484 367.178" stroke="white" stroke-linecap="round" stroke-linejoin="round"/>
<path d="M396.368 377.546L388.931 377.518" stroke="white" stroke-linecap="round" stroke-linejoin="round"/>
<path d="M399.026 380.449L399.884 373.145" stroke="white" stroke-linecap="round" stroke-linejoin="round"/>
<path d="M401.288 382.994L395.812 383.305" stroke="white" stroke-linecap="round" stroke-linejoin="round"/>
</g>
<path d="M412.627 385.897L434.014 363.859" stroke="#92E3A9" stroke-linecap="round" stroke-linejoin="round"/>
<path d="M426.407 371.693L426.002 366.716" stroke="#92E3A9" stroke-linecap="round" stroke-linejoin="round"/>
<path d="M422.92 375.378L430.96 373.775" stroke="#92E3A9" stroke-linecap="round" stroke-linejoin="round"/>
<path d="M420.837 377.433L420.309 370.015" stroke="#92E3A9" stroke-linecap="round" stroke-linejoin="round"/>
<path d="M418.132 380.299L425.484 380.619" stroke="#92E3A9" stroke-linecap="round" stroke-linejoin="round"/>
<path d="M415.766 382.74L415.049 377.311" stroke="#92E3A9" stroke-linecap="round" stroke-linejoin="round"/>
<g opacity="0.7">
<path d="M412.627 385.897L434.014 363.859" stroke="white" stroke-linecap="round" stroke-linejoin="round"/>
<path d="M426.407 371.693L426.002 366.716" stroke="white" stroke-linecap="round" stroke-linejoin="round"/>
<path d="M422.92 375.378L430.96 373.775" stroke="white" stroke-linecap="round" stroke-linejoin="round"/>
<path d="M420.837 377.433L420.309 370.015" stroke="white" stroke-linecap="round" stroke-linejoin="round"/>
<path d="M418.132 380.298L425.484 380.618" stroke="white" stroke-linecap="round" stroke-linejoin="round"/>
<path d="M415.766 382.739L415.049 377.31" stroke="white" stroke-linecap="round" stroke-linejoin="round"/>
</g>
<path d="M28.3626 254.07C28.6736 242.297 27.7688 222.221 38.0899 213.954C47.1573 206.697 54.2077 216.546 56.7432 224.492C62.917 243.768 60.0139 265.022 60.0045 284.92C60.0045 285.222 60.0045 285.523 60.0045 285.862C60.4946 300.51 62.2478 316.354 60.6548 330.974C60.6548 330.974 62.2195 316.326 73.7282 322.604C85.2369 328.881 67.9691 361.824 67.9691 361.824C67.9691 361.824 81.5703 351.889 87.8478 360.259C94.1253 368.629 80.0245 377.998 80.0245 377.998C80.0245 377.998 93.0979 374.341 93.0979 377.998C93.0979 381.655 88.9129 384.794 76.8858 386.368H12.028C12.028 386.368 1.56552 380.609 3.65801 374.341C5.7505 368.073 16.7314 371.721 16.7314 371.721C16.7314 371.721 0.000855982 351.324 1.0471 342.435C2.09335 333.547 23.5367 344.009 23.5367 344.009C23.5367 344.009 6.79674 301.65 9.93548 282.856C12.405 268.029 23.9231 278.143 30.1817 283.874C28.7078 274.011 28.0991 264.038 28.3626 254.07Z" fill="#92E3A9" stroke="white" stroke-linecap="round" stroke-linejoin="round"/>
<path opacity="0.5" d="M28.3626 254.07C28.6736 242.297 27.7688 222.221 38.0899 213.954C47.1573 206.697 54.2077 216.546 56.7432 224.492C62.917 243.768 60.0139 265.022 60.0045 284.92C60.0045 285.222 60.0045 285.523 60.0045 285.862C60.4946 300.51 62.2478 316.354 60.6548 330.974C60.6548 330.974 62.2195 316.326 73.7282 322.604C85.2369 328.881 67.9691 361.824 67.9691 361.824C67.9691 361.824 81.5703 351.889 87.8478 360.259C94.1253 368.629 80.0245 377.998 80.0245 377.998C80.0245 377.998 93.0979 374.341 93.0979 377.998C93.0979 381.655 88.9129 384.794 76.8858 386.368H12.028C12.028 386.368 1.56552 380.609 3.65801 374.341C5.7505 368.073 16.7314 371.721 16.7314 371.721C16.7314 371.721 0.000855982 351.324 1.0471 342.435C2.09335 333.547 23.5367 344.009 23.5367 344.009C23.5367 344.009 6.79674 301.65 9.93548 282.856C12.405 268.029 23.9231 278.143 30.1817 283.874C28.7078 274.011 28.0991 264.038 28.3626 254.07Z" fill="white"/>
<path d="M49.1556 385.84L44.4522 242.033" stroke="white" stroke-linecap="round" stroke-linejoin="round"/>
<path d="M46.5446 325.705L21.9626 302.697" stroke="white" stroke-linecap="round" stroke-linejoin="round"/>
<path d="M35.036 315.243L29.8047 300.604" stroke="white" stroke-linecap="round" stroke-linejoin="round"/>
<path d="M66.9323 343.482L48.1093 363.879" stroke="white" stroke-linecap="round" stroke-linejoin="round"/>
<path d="M16.7313 354.99L48.1093 371.202" stroke="white" stroke-linecap="round" stroke-linejoin="round"/>
<path d="M33.4713 364.397L21.9626 363.879" stroke="white" stroke-linecap="round" stroke-linejoin="round"/>
<path d="M49.1556 385.84L44.4522 242.033" stroke="#92E3A9" stroke-linecap="round" stroke-linejoin="round"/>
<path d="M46.5446 325.705L21.9626 302.697" stroke="#92E3A9" stroke-linecap="round" stroke-linejoin="round"/>
<path d="M35.036 315.243L29.8047 300.604" stroke="#92E3A9" stroke-linecap="round" stroke-linejoin="round"/>
<path d="M66.9323 343.482L48.1093 363.879" stroke="#92E3A9" stroke-linecap="round" stroke-linejoin="round"/>
<path d="M16.7313 354.99L48.1093 371.202" stroke="#92E3A9" stroke-linecap="round" stroke-linejoin="round"/>
<path d="M33.4713 364.397L21.9626 363.879" stroke="#92E3A9" stroke-linecap="round" stroke-linejoin="round"/>
<g opacity="0.8">
<path d="M49.1555 385.84L44.4521 242.033" stroke="white" stroke-linecap="round" stroke-linejoin="round"/>
<path d="M46.5446 325.705L21.9626 302.697" stroke="white" stroke-linecap="round" stroke-linejoin="round"/>
<path d="M35.036 315.243L29.8047 300.604" stroke="white" stroke-linecap="round" stroke-linejoin="round"/>
<path d="M66.9323 343.481L48.1093 363.879" stroke="white" stroke-linecap="round" stroke-linejoin="round"/>
<path d="M16.7314 354.99L48.1093 371.202" stroke="white" stroke-linecap="round" stroke-linejoin="round"/>
<path d="M33.4713 364.397L21.9626 363.879" stroke="white" stroke-linecap="round" stroke-linejoin="round"/>
</g>
<path d="M140.876 356.781C140.876 371.4 129.292 383.258 129.292 383.258C129.292 383.258 117.727 371.4 117.727 356.781C117.727 342.162 129.311 330.305 129.311 330.305C129.311 330.305 140.876 342.153 140.876 356.781Z" fill="#92E3A9"/>
<path d="M148.898 379.337C143.242 385.68 133.685 386.368 133.685 386.368C133.685 386.368 133.223 376.764 138.85 370.42C144.477 364.077 154.063 363.389 154.063 363.389C154.063 363.389 154.487 372.993 148.898 379.337Z" fill="#92E3A9"/>
<path d="M119.386 370.203C125.286 376.282 125.258 385.897 125.258 385.897C125.258 385.897 115.653 385.642 109.744 379.553C103.834 373.464 103.871 363.859 103.871 363.859C103.871 363.859 113.476 364.114 119.386 370.203Z" fill="#92E3A9"/>
<g opacity="0.5">
<path d="M140.876 356.781C140.876 371.4 129.292 383.258 129.292 383.258C129.292 383.258 117.727 371.4 117.727 356.781C117.727 342.162 129.311 330.305 129.311 330.305C129.311 330.305 140.876 342.153 140.876 356.781Z" fill="white"/>
<path d="M129.292 383.258V330.305" stroke="white" stroke-linecap="round" stroke-linejoin="round"/>
<path d="M129.292 349.128L135.777 343.463" stroke="white" stroke-linecap="round" stroke-linejoin="round"/>
<path d="M129.189 357.874L121.158 346.243" stroke="white" stroke-linecap="round" stroke-linejoin="round"/>
<path d="M129.292 362.918L138.869 354.378" stroke="white" stroke-linecap="round" stroke-linejoin="round"/>
<path d="M129.189 369.713L119.716 361.277" stroke="white" stroke-linecap="round" stroke-linejoin="round"/>
<path d="M129.189 375.585L136.597 369.713" stroke="white" stroke-linecap="round" stroke-linejoin="round"/>
<path d="M148.898 379.337C143.242 385.68 133.685 386.368 133.685 386.368C133.685 386.368 133.223 376.764 138.85 370.42C144.477 364.077 154.063 363.389 154.063 363.389C154.063 363.389 154.487 372.993 148.898 379.337Z" fill="white"/>
<path d="M133.685 386.368L154.063 363.389" stroke="white" stroke-linecap="round" stroke-linejoin="round"/>
<path d="M146.824 371.561L151.81 371.598" stroke="white" stroke-linecap="round" stroke-linejoin="round"/>
<path d="M143.412 375.312L144.402 367.178" stroke="white" stroke-linecap="round" stroke-linejoin="round"/>
<path d="M141.508 377.546L148.954 377.518" stroke="white" stroke-linecap="round" stroke-linejoin="round"/>
<path d="M138.85 380.448L137.992 373.144" stroke="white" stroke-linecap="round" stroke-linejoin="round"/>
<path d="M136.597 382.994L142.073 383.305" stroke="white" stroke-linecap="round" stroke-linejoin="round"/>
<path d="M119.386 370.203C125.286 376.282 125.258 385.897 125.258 385.897C125.258 385.897 115.653 385.642 109.744 379.553C103.834 373.464 103.871 363.859 103.871 363.859C103.871 363.859 113.476 364.114 119.386 370.203Z" fill="white"/>
<path d="M125.258 385.897L103.871 363.859" stroke="white" stroke-linecap="round" stroke-linejoin="round"/>
<path d="M111.468 371.693L111.883 366.716" stroke="white" stroke-linecap="round" stroke-linejoin="round"/>
<path d="M114.965 375.378L106.925 373.775" stroke="white" stroke-linecap="round" stroke-linejoin="round"/>
<path d="M117.039 377.433L117.576 370.015" stroke="white" stroke-linecap="round" stroke-linejoin="round"/>
<path d="M119.744 380.298L112.392 380.618" stroke="white" stroke-linecap="round" stroke-linejoin="round"/>
<path d="M122.119 382.739L122.826 377.31" stroke="white" stroke-linecap="round" stroke-linejoin="round"/>
</g>
<path d="M129.292 383.258V330.305" stroke="#92E3A9" stroke-linecap="round" stroke-linejoin="round"/>
<path d="M129.292 349.128L135.777 343.463" stroke="#92E3A9" stroke-linecap="round" stroke-linejoin="round"/>
<path d="M129.189 357.874L121.158 346.243" stroke="#92E3A9" stroke-linecap="round" stroke-linejoin="round"/>
<path d="M129.292 362.918L138.869 354.378" stroke="#92E3A9" stroke-linecap="round" stroke-linejoin="round"/>
<path d="M129.189 369.713L119.716 361.277" stroke="#92E3A9" stroke-linecap="round" stroke-linejoin="round"/>
<path d="M129.189 375.585L136.597 369.713" stroke="#92E3A9" stroke-linecap="round" stroke-linejoin="round"/>
<g opacity="0.7">
<path d="M129.292 383.258V330.305" stroke="white" stroke-linecap="round" stroke-linejoin="round"/>
<path d="M129.292 349.128L135.777 343.463" stroke="white" stroke-linecap="round" stroke-linejoin="round"/>
<path d="M129.189 357.874L121.158 346.243" stroke="white" stroke-linecap="round" stroke-linejoin="round"/>
<path d="M129.292 362.918L138.869 354.378" stroke="white" stroke-linecap="round" stroke-linejoin="round"/>
<path d="M129.189 369.713L119.716 361.277" stroke="white" stroke-linecap="round" stroke-linejoin="round"/>
<path d="M129.189 375.585L136.597 369.713" stroke="white" stroke-linecap="round" stroke-linejoin="round"/>
</g>
<path d="M133.685 386.368L154.063 363.389" stroke="#92E3A9" stroke-linecap="round" stroke-linejoin="round"/>
<path d="M146.824 371.561L151.81 371.598" stroke="#92E3A9" stroke-linecap="round" stroke-linejoin="round"/>
<path d="M143.412 375.312L144.402 367.178" stroke="#92E3A9" stroke-linecap="round" stroke-linejoin="round"/>
<path d="M141.508 377.546L148.954 377.518" stroke="#92E3A9" stroke-linecap="round" stroke-linejoin="round"/>
<path d="M138.85 380.449L137.992 373.145" stroke="#92E3A9" stroke-linecap="round" stroke-linejoin="round"/>
<path d="M136.597 382.994L142.074 383.305" stroke="#92E3A9" stroke-linecap="round" stroke-linejoin="round"/>
<g opacity="0.7">
<path d="M133.685 386.368L154.063 363.389" stroke="white" stroke-linecap="round" stroke-linejoin="round"/>
<path d="M146.824 371.562L151.81 371.599" stroke="white" stroke-linecap="round" stroke-linejoin="round"/>
<path d="M143.412 375.312L144.402 367.178" stroke="white" stroke-linecap="round" stroke-linejoin="round"/>
<path d="M141.508 377.546L148.954 377.518" stroke="white" stroke-linecap="round" stroke-linejoin="round"/>
<path d="M138.85 380.449L137.992 373.145" stroke="white" stroke-linecap="round" stroke-linejoin="round"/>
<path d="M136.597 382.994L142.073 383.305" stroke="white" stroke-linecap="round" stroke-linejoin="round"/>
</g>
<path d="M125.258 385.897L103.871 363.859" stroke="#92E3A9" stroke-linecap="round" stroke-linejoin="round"/>
<path d="M111.468 371.693L111.883 366.716" stroke="#92E3A9" stroke-linecap="round" stroke-linejoin="round"/>
<path d="M114.965 375.378L106.925 373.775" stroke="#92E3A9" stroke-linecap="round" stroke-linejoin="round"/>
<path d="M117.039 377.433L117.576 370.015" stroke="#92E3A9" stroke-linecap="round" stroke-linejoin="round"/>
<path d="M119.744 380.299L112.392 380.619" stroke="#92E3A9" stroke-linecap="round" stroke-linejoin="round"/>
<path d="M122.119 382.74L122.826 377.311" stroke="#92E3A9" stroke-linecap="round" stroke-linejoin="round"/>
<g opacity="0.7">
<path d="M125.258 385.897L103.871 363.859" stroke="white" stroke-linecap="round" stroke-linejoin="round"/>
<path d="M111.468 371.693L111.883 366.716" stroke="white" stroke-linecap="round" stroke-linejoin="round"/>
<path d="M114.965 375.378L106.925 373.775" stroke="white" stroke-linecap="round" stroke-linejoin="round"/>
<path d="M117.039 377.433L117.576 370.015" stroke="white" stroke-linecap="round" stroke-linejoin="round"/>
<path d="M119.744 380.298L112.392 380.618" stroke="white" stroke-linecap="round" stroke-linejoin="round"/>
<path d="M122.119 382.739L122.826 377.31" stroke="white" stroke-linecap="round" stroke-linejoin="round"/>
</g>
<path d="M401.797 106.238H146.994C146.917 106.24 146.842 106.226 146.771 106.197C146.7 106.169 146.635 106.127 146.581 106.073C146.527 106.02 146.484 105.956 146.454 105.886C146.425 105.815 146.409 105.74 146.409 105.663C146.409 105.508 146.471 105.36 146.581 105.25C146.69 105.141 146.839 105.079 146.994 105.079H401.797C401.873 105.079 401.949 105.094 402.019 105.124C402.09 105.153 402.153 105.196 402.207 105.251C402.26 105.305 402.303 105.37 402.331 105.441C402.359 105.511 402.373 105.587 402.372 105.663C402.372 105.816 402.311 105.962 402.204 106.07C402.096 106.178 401.95 106.238 401.797 106.238Z" fill="#92E3A9"/>
<g opacity="0.3">
<path d="M401.797 106.238H146.994C146.917 106.24 146.842 106.226 146.771 106.197C146.7 106.169 146.635 106.127 146.581 106.073C146.527 106.02 146.484 105.956 146.454 105.886C146.425 105.815 146.409 105.74 146.409 105.663C146.409 105.508 146.471 105.36 146.581 105.25C146.69 105.141 146.839 105.079 146.994 105.079H401.797C401.873 105.079 401.949 105.094 402.019 105.124C402.09 105.153 402.153 105.196 402.207 105.251C402.26 105.305 402.303 105.37 402.331 105.441C402.359 105.511 402.373 105.587 402.372 105.663C402.372 105.816 402.311 105.962 402.204 106.07C402.096 106.178 401.95 106.238 401.797 106.238Z" fill="white"/>
</g>
<path d="M401.288 207.3H146.485C146.408 207.301 146.333 207.287 146.262 207.259C146.191 207.231 146.127 207.188 146.072 207.135C146.018 207.081 145.975 207.018 145.945 206.947C145.916 206.877 145.9 206.801 145.9 206.725C145.9 206.57 145.962 206.421 146.072 206.312C146.181 206.202 146.33 206.141 146.485 206.141H401.288C401.364 206.141 401.44 206.156 401.51 206.185C401.581 206.215 401.644 206.258 401.698 206.312C401.751 206.367 401.794 206.431 401.822 206.502C401.85 206.573 401.864 206.649 401.863 206.725C401.863 206.801 401.848 206.875 401.819 206.945C401.79 207.015 401.748 207.078 401.695 207.132C401.641 207.185 401.578 207.227 401.508 207.256C401.438 207.285 401.364 207.3 401.288 207.3Z" fill="#92E3A9"/>
<g opacity="0.3">
<path d="M401.288 207.3H146.485C146.408 207.301 146.333 207.287 146.262 207.259C146.191 207.231 146.127 207.188 146.072 207.135C146.018 207.081 145.975 207.018 145.945 206.947C145.916 206.877 145.9 206.801 145.9 206.725C145.9 206.57 145.962 206.421 146.072 206.312C146.181 206.202 146.33 206.141 146.485 206.141H401.288C401.364 206.141 401.44 206.156 401.51 206.185C401.581 206.215 401.644 206.258 401.698 206.312C401.751 206.367 401.794 206.431 401.822 206.502C401.85 206.573 401.864 206.649 401.863 206.725C401.863 206.801 401.848 206.875 401.819 206.945C401.79 207.015 401.748 207.078 401.695 207.132C401.641 207.185 401.578 207.227 401.508 207.256C401.438 207.285 401.364 207.3 401.288 207.3Z" fill="white"/>
</g>
<path d="M401.288 289.916H146.485C146.33 289.916 146.181 289.855 146.072 289.745C145.962 289.636 145.9 289.487 145.9 289.332C145.9 289.256 145.916 289.18 145.945 289.11C145.975 289.039 146.018 288.975 146.072 288.922C146.127 288.868 146.191 288.826 146.262 288.798C146.333 288.77 146.408 288.756 146.485 288.757H401.288C401.364 288.757 401.438 288.772 401.508 288.801C401.578 288.83 401.641 288.872 401.695 288.925C401.748 288.979 401.79 289.042 401.819 289.112C401.848 289.182 401.863 289.256 401.863 289.332C401.864 289.408 401.85 289.484 401.822 289.555C401.794 289.626 401.751 289.69 401.698 289.745C401.644 289.799 401.581 289.842 401.51 289.872C401.44 289.901 401.364 289.916 401.288 289.916Z" fill="#92E3A9"/>
<g opacity="0.3">
<path d="M401.288 289.916H146.485C146.33 289.916 146.181 289.855 146.072 289.745C145.962 289.636 145.9 289.487 145.9 289.332C145.9 289.256 145.916 289.18 145.945 289.11C145.975 289.039 146.018 288.975 146.072 288.922C146.127 288.868 146.191 288.826 146.262 288.798C146.333 288.77 146.409 288.756 146.485 288.757H401.288C401.364 288.757 401.438 288.772 401.508 288.801C401.578 288.83 401.641 288.872 401.695 288.925C401.748 288.979 401.79 289.042 401.819 289.112C401.848 289.182 401.863 289.256 401.863 289.332C401.864 289.408 401.85 289.484 401.822 289.555C401.794 289.626 401.752 289.69 401.698 289.745C401.645 289.799 401.581 289.842 401.51 289.872C401.44 289.901 401.364 289.916 401.288 289.916Z" fill="white"/>
</g>
<path d="M200.654 303.895V389.875" stroke="#263238" stroke-width="0.265171" stroke-miterlimit="10"/>
<path d="M212.935 303.895V389.875" stroke="#263238" stroke-width="0.265171" stroke-miterlimit="10"/>
<path d="M225.217 303.895V389.875" stroke="#263238" stroke-width="0.265171" stroke-miterlimit="10"/>
<path d="M237.499 303.895V389.875" stroke="#263238" stroke-width="0.265171" stroke-miterlimit="10"/>
<path d="M249.78 303.895V389.875" stroke="#263238" stroke-width="0.265171" stroke-miterlimit="10"/>
<path d="M262.062 303.895V389.875" stroke="#263238" stroke-width="0.265171" stroke-miterlimit="10"/>
<path d="M274.344 303.895V389.875" stroke="#263238" stroke-width="0.265171" stroke-miterlimit="10"/>
<path d="M286.625 303.895V389.875" stroke="#263238" stroke-width="0.265171" stroke-miterlimit="10"/>
<path d="M298.907 303.895V389.875" stroke="#263238" stroke-width="0.265171" stroke-miterlimit="10"/>
<path d="M311.188 303.895V389.875" stroke="#263238" stroke-width="0.265171" stroke-miterlimit="10"/>
<path d="M323.47 303.895V389.875" stroke="#263238" stroke-width="0.265171" stroke-miterlimit="10"/>
<path d="M335.752 303.895V389.875" stroke="#263238" stroke-width="0.265171" stroke-miterlimit="10"/>
<path d="M201.267 311.878H335.139" stroke="#263238" stroke-width="0.265171" stroke-miterlimit="10"/>
<path d="M201.267 323.547H335.139" stroke="#263238" stroke-width="0.265171" stroke-miterlimit="10"/>
<path d="M201.267 335.216H335.139" stroke="#263238" stroke-width="0.265171" stroke-miterlimit="10"/>
<path d="M201.267 346.885H335.139" stroke="#263238" stroke-width="0.265171" stroke-miterlimit="10"/>
<path d="M201.267 358.554H335.139" stroke="#263238" stroke-width="0.265171" stroke-miterlimit="10"/>
<path d="M201.267 370.223H335.139" stroke="#263238" stroke-width="0.265171" stroke-miterlimit="10"/>
<path d="M201.267 381.892H335.139" stroke="#263238" stroke-width="0.265171" stroke-miterlimit="10"/>
<path d="M229.393 334.057L211.427 389.442H249.054L231.08 334.057C231.022 333.878 230.91 333.722 230.758 333.612C230.607 333.501 230.424 333.441 230.236 333.441C230.049 333.441 229.866 333.501 229.714 333.612C229.563 333.722 229.45 333.878 229.393 334.057Z" fill="#92E3A9" stroke="#263238" stroke-width="1.06068" stroke-miterlimit="10"/>
<path d="M263.645 315.714L239.733 389.441H289.274L265.333 315.714C265.275 315.535 265.163 315.379 265.011 315.269C264.859 315.158 264.677 315.099 264.489 315.099C264.301 315.099 264.119 315.158 263.967 315.269C263.815 315.379 263.703 315.535 263.645 315.714Z" fill="#263238" stroke="#263238" stroke-width="1.06068" stroke-miterlimit="10"/>
<path d="M295.165 346.724L281.3 389.441H310.708L296.814 346.724C296.749 346.559 296.636 346.416 296.489 346.316C296.341 346.216 296.168 346.162 295.989 346.162C295.811 346.162 295.637 346.216 295.49 346.316C295.343 346.416 295.23 346.559 295.165 346.724Z" fill="#92E3A9" stroke="#263238" stroke-width="1.06068" stroke-miterlimit="10"/>
<path d="M314.157 361.391L305.062 389.441H324.94L315.845 361.391C315.787 361.212 315.675 361.056 315.523 360.946C315.371 360.835 315.189 360.775 315.001 360.775C314.813 360.775 314.631 360.835 314.479 360.946C314.327 361.056 314.215 361.212 314.157 361.391Z" fill="#263238" stroke="#263238" stroke-width="1.06068" stroke-miterlimit="10"/>
<path d="M199.033 276.721C193.643 276.721 188.375 275.123 183.894 272.128C179.412 269.134 175.92 264.878 173.857 259.899C171.795 254.92 171.255 249.441 172.307 244.155C173.358 238.869 175.953 234.014 179.764 230.203C183.575 226.392 188.431 223.797 193.717 222.745C199.002 221.694 204.481 222.233 209.461 224.296C214.44 226.358 218.696 229.851 221.69 234.332C224.684 238.813 226.282 244.082 226.282 249.471C226.275 256.696 223.401 263.623 218.293 268.731C213.184 273.84 206.257 276.713 199.033 276.721ZM199.033 230.224C195.226 230.226 191.506 231.356 188.342 233.472C185.178 235.588 182.713 238.595 181.257 242.112C179.802 245.629 179.422 249.499 180.166 253.232C180.91 256.965 182.743 260.394 185.436 263.084C188.128 265.775 191.557 267.607 195.291 268.349C199.024 269.091 202.893 268.709 206.41 267.252C209.926 265.795 212.932 263.328 215.046 260.163C217.161 256.998 218.289 253.278 218.289 249.471C218.284 244.366 216.254 239.472 212.643 235.864C209.033 232.255 204.137 230.227 199.033 230.224Z" fill="#263238" stroke="#263238" stroke-width="1.06068" stroke-miterlimit="10"/>
<path d="M199.033 276.721C195.355 276.732 191.714 275.993 188.331 274.549C184.949 273.105 181.897 270.986 179.361 268.322L185.139 262.79C186.929 264.672 189.085 266.168 191.474 267.188C193.863 268.207 196.435 268.728 199.033 268.718C201.56 268.718 204.063 268.22 206.398 267.253C208.733 266.286 210.855 264.868 212.642 263.081C214.43 261.294 215.847 259.172 216.815 256.837C217.782 254.502 218.28 251.999 218.28 249.471C218.28 246.944 217.782 244.441 216.815 242.106C215.847 239.77 214.43 237.649 212.642 235.861C210.855 234.074 208.733 232.656 206.398 231.689C204.063 230.722 201.56 230.224 199.033 230.224V222.222C202.611 222.222 206.155 222.926 209.461 224.296C212.767 225.665 215.771 227.673 218.301 230.203C220.831 232.733 222.839 235.737 224.208 239.043C225.577 242.349 226.282 245.893 226.282 249.471C226.282 253.05 225.577 256.593 224.208 259.899C222.839 263.205 220.831 266.209 218.301 268.74C215.771 271.27 212.767 273.277 209.461 274.646C206.155 276.016 202.611 276.721 199.033 276.721Z" fill="#92E3A9" stroke="#263238" stroke-width="1.06068" stroke-miterlimit="10"/>
<path d="M266.237 276.721C260.848 276.723 255.578 275.126 251.096 272.133C246.613 269.14 243.119 264.885 241.055 259.906C238.992 254.927 238.451 249.447 239.501 244.161C240.551 238.874 243.146 234.018 246.956 230.206C250.767 226.394 255.622 223.798 260.908 222.746C266.195 221.694 271.674 222.233 276.654 224.295C281.634 226.357 285.89 229.85 288.885 234.331C291.879 238.813 293.478 244.081 293.478 249.471C293.47 256.694 290.598 263.62 285.491 268.728C280.385 273.836 273.461 276.711 266.237 276.721ZM266.237 230.224C262.432 230.228 258.712 231.36 255.549 233.477C252.387 235.594 249.923 238.601 248.469 242.119C247.015 245.636 246.637 249.505 247.381 253.238C248.126 256.97 249.961 260.398 252.653 263.088C255.346 265.778 258.775 267.609 262.508 268.35C266.241 269.091 270.11 268.709 273.626 267.251C277.142 265.794 280.147 263.327 282.261 260.162C284.375 256.998 285.503 253.277 285.503 249.471C285.496 244.366 283.463 239.471 279.851 235.863C276.239 232.255 271.343 230.227 266.237 230.224Z" fill="#263238" stroke="#263238" stroke-width="1.06068" stroke-miterlimit="10"/>
<path d="M276.841 274.572L273.731 267.21C277.818 265.478 281.182 262.386 283.252 258.458C285.321 254.53 285.97 250.008 285.089 245.657C284.207 241.306 281.849 237.393 278.414 234.58C274.979 231.768 270.677 230.229 266.237 230.224V222.222C272.525 222.222 278.619 224.397 283.486 228.378C288.353 232.358 291.694 237.899 292.942 244.061C294.19 250.224 293.269 256.628 290.334 262.189C287.4 267.749 282.633 272.124 276.841 274.572Z" fill="#92E3A9" stroke="#263238" stroke-width="1.06068" stroke-miterlimit="10"/>
<path d="M333.433 276.721C328.043 276.721 322.775 275.123 318.294 272.128C313.813 269.134 310.32 264.878 308.258 259.899C306.195 254.92 305.655 249.441 306.707 244.155C307.758 238.869 310.354 234.014 314.164 230.203C317.975 226.392 322.831 223.797 328.117 222.745C333.403 221.694 338.882 222.233 343.861 224.296C348.84 226.358 353.096 229.851 356.09 234.332C359.084 238.813 360.682 244.082 360.682 249.471C360.675 256.696 357.802 263.623 352.693 268.731C347.584 273.84 340.658 276.713 333.433 276.721ZM333.433 230.224C329.626 230.224 325.905 231.353 322.74 233.468C319.574 235.583 317.108 238.589 315.651 242.106C314.194 245.623 313.813 249.493 314.555 253.226C315.298 256.96 317.131 260.389 319.823 263.081C322.515 265.773 325.944 267.606 329.678 268.349C333.411 269.091 337.281 268.71 340.798 267.253C344.315 265.796 347.321 263.33 349.436 260.164C351.551 256.999 352.68 253.278 352.68 249.471C352.675 244.368 350.646 239.475 347.037 235.867C343.429 232.258 338.536 230.229 333.433 230.224Z" fill="#263238" stroke="#263238" stroke-width="1.06068" stroke-miterlimit="10"/>
<path d="M352.303 245.635C351.409 241.292 349.047 237.389 345.614 234.582C342.18 231.776 337.886 230.237 333.452 230.224V222.222C339.732 222.238 345.815 224.416 350.678 228.39C355.541 232.364 358.888 237.891 360.155 244.042L352.303 245.635Z" fill="#92E3A9" stroke="#263238" stroke-width="1.06068" stroke-miterlimit="10"/>
<path d="M209.9 192.05H337.872" stroke="#263238" stroke-width="1.06068" stroke-miterlimit="10"/>
<path d="M209.9 192.05V189.326" stroke="#263238" stroke-width="1.06068" stroke-miterlimit="10"/>
<path d="M235.491 192.05V189.326" stroke="#263238" stroke-width="1.06068" stroke-miterlimit="10"/>
<path d="M261.091 192.05V189.326" stroke="#263238" stroke-width="1.06068" stroke-miterlimit="10"/>
<path d="M286.682 192.05V189.326" stroke="#263238" stroke-width="1.06068" stroke-miterlimit="10"/>
<path d="M312.272 192.05V189.326" stroke="#263238" stroke-width="1.06068" stroke-miterlimit="10"/>
<path d="M337.872 192.05V189.326" stroke="#263238" stroke-width="1.06068" stroke-miterlimit="10"/>
<path d="M231.909 155.676H213.482V177.496H231.909V155.676Z" fill="#92E3A9" stroke="#263238" stroke-width="1.06068" stroke-miterlimit="10"/>
<path d="M257.5 130.218H239.073V181.135H257.5V130.218Z" fill="#92E3A9" stroke="#263238" stroke-width="1.06068" stroke-miterlimit="10"/>
<path d="M283.1 94.5791H264.673V151.321H283.1V94.5791Z" fill="#92E3A9" stroke="#263238" stroke-width="1.06068" stroke-miterlimit="10"/>
<path d="M308.69 147.684H290.263V158.598H308.69V147.684Z" fill="#92E3A9" stroke="#263238" stroke-width="1.06068" stroke-miterlimit="10"/>
<path d="M334.281 141.133H315.854V169.504H334.281V141.133Z" fill="#92E3A9" stroke="#263238" stroke-width="1.06068" stroke-miterlimit="10"/>
<path d="M231.909 177.506H213.482V192.059H231.909V177.506Z" fill="#263238" stroke="#263238" stroke-width="1.06068" stroke-miterlimit="10"/>
<path d="M257.5 181.145H239.073V192.059H257.5V181.145Z" fill="#263238" stroke="#263238" stroke-width="1.06068" stroke-miterlimit="10"/>
<path d="M283.1 151.312H264.673V192.05H283.1V151.312Z" fill="#263238" stroke="#263238" stroke-width="1.06068" stroke-miterlimit="10"/>
<path d="M308.69 158.589H290.263V192.05H308.69V158.589Z" fill="#263238" stroke="#263238" stroke-width="1.06068" stroke-miterlimit="10"/>
<path d="M334.281 169.504H315.854V192.05H334.281V169.504Z" fill="#263238" stroke="#263238" stroke-width="1.06068" stroke-miterlimit="10"/>
<path d="M371.974 84.2761C371.753 84.2777 371.534 84.2242 371.339 84.1206C371.143 84.017 370.976 83.8664 370.853 83.6823L331.208 25.8654L290.989 68.7521L249.922 41.9833L210.193 51.2015L169.841 83.9745C169.561 84.202 169.203 84.3089 168.844 84.2718C168.485 84.2347 168.156 84.0565 167.928 83.7765C167.701 83.4966 167.594 83.1377 167.631 82.7788C167.668 82.42 167.846 82.0906 168.126 81.8631L208.967 48.6943L250.44 39.0707L290.574 65.2363L331.548 21.5391L373.096 82.1459C373.237 82.3493 373.319 82.5873 373.335 82.8343C373.35 83.0812 373.298 83.3277 373.183 83.547C373.069 83.7663 372.896 83.9502 372.685 84.0787C372.474 84.2072 372.231 84.2755 371.984 84.2761H371.974Z" fill="#263238"/>
<path d="M172.396 82.9196C172.396 83.5852 172.198 84.2357 171.829 84.7891C171.459 85.3425 170.933 85.7738 170.319 86.0285C169.704 86.2831 169.027 86.3498 168.374 86.2199C167.722 86.0901 167.122 85.7696 166.651 85.299C166.181 84.8284 165.86 84.2289 165.731 83.5761C165.601 82.9234 165.667 82.2468 165.922 81.6319C166.177 81.0171 166.608 80.4915 167.161 80.1218C167.715 79.752 168.365 79.5547 169.031 79.5547C169.923 79.5547 170.779 79.9092 171.41 80.5403C172.041 81.1713 172.396 82.0272 172.396 82.9196Z" fill="#92E3A9"/>
<path d="M209.58 53.3139C211.438 53.3139 212.945 51.8073 212.945 49.9489C212.945 48.0905 211.438 46.584 209.58 46.584C207.722 46.584 206.215 48.0905 206.215 49.9489C206.215 51.8073 207.722 53.3139 209.58 53.3139Z" fill="#92E3A9"/>
<path d="M250.176 43.8881C252.035 43.8881 253.541 42.3816 253.541 40.5232C253.541 38.6647 252.035 37.1582 250.176 37.1582C248.318 37.1582 246.811 38.6647 246.811 40.5232C246.811 42.3816 248.318 43.8881 250.176 43.8881Z" fill="#92E3A9"/>
<path d="M290.772 70.3549C292.631 70.3549 294.137 68.8484 294.137 66.99C294.137 65.1315 292.631 63.625 290.772 63.625C288.914 63.625 287.407 65.1315 287.407 66.99C287.407 68.8484 288.914 70.3549 290.772 70.3549Z" fill="#92E3A9"/>
<path d="M334.734 23.7077C334.734 24.3733 334.536 25.0238 334.166 25.5772C333.797 26.1306 333.271 26.5619 332.656 26.8165C332.041 27.0712 331.365 27.1379 330.712 27.008C330.059 26.8782 329.46 26.5577 328.989 26.0871C328.519 25.6165 328.198 25.0169 328.068 24.3642C327.938 23.7115 328.005 23.0349 328.26 22.42C328.514 21.8051 328.946 21.2796 329.499 20.9099C330.052 20.5401 330.703 20.3428 331.369 20.3428C332.261 20.3428 333.117 20.6973 333.748 21.3283C334.379 21.9594 334.734 22.8153 334.734 23.7077Z" fill="#92E3A9"/>
<path d="M375.33 82.9196C375.33 83.5852 375.132 84.2357 374.763 84.7891C374.393 85.3425 373.867 85.7738 373.253 86.0285C372.638 86.2831 371.961 86.3498 371.308 86.2199C370.656 86.0901 370.056 85.7696 369.585 85.299C369.115 84.8284 368.794 84.2289 368.665 83.5761C368.535 82.9234 368.601 82.2468 368.856 81.6319C369.111 81.0171 369.542 80.4915 370.095 80.1218C370.649 79.752 371.299 79.5547 371.965 79.5547C372.857 79.5547 373.713 79.9092 374.344 80.5403C374.975 81.1713 375.33 82.0272 375.33 82.9196Z" fill="#92E3A9"/>
<path d="M444.533 403.636C480.462 403.636 509.589 399.724 509.589 394.899C509.589 390.073 480.462 386.161 444.533 386.161C408.603 386.161 379.477 390.073 379.477 394.899C379.477 399.724 408.603 403.636 444.533 403.636Z" fill="#92E3A9"/>
<path opacity="0.7" d="M444.533 403.636C480.462 403.636 509.589 399.724 509.589 394.899C509.589 390.073 480.462 386.161 444.533 386.161C408.603 386.161 379.477 390.073 379.477 394.899C379.477 399.724 408.603 403.636 444.533 403.636Z" fill="white"/>
<path d="M88.1117 403.636C121.266 403.636 148.144 399.724 148.144 394.899C148.144 390.073 121.266 386.161 88.1117 386.161C54.957 386.161 28.0798 390.073 28.0798 394.899C28.0798 399.724 54.957 403.636 88.1117 403.636Z" fill="#92E3A9"/>
<path opacity="0.7" d="M88.1117 403.636C121.266 403.636 148.144 399.724 148.144 394.899C148.144 390.073 121.266 386.161 88.1117 386.161C54.957 386.161 28.0798 390.073 28.0798 394.899C28.0798 399.724 54.957 403.636 88.1117 403.636Z" fill="white"/>
<path d="M426.172 87.0854C426.172 87.0854 450.886 84.6913 452.3 88.8103C453.713 92.9293 453.242 102.336 453.242 102.336C454.487 102.66 455.701 103.092 456.871 103.627C457.201 103.948 460.858 106.342 457.446 110.272C456.555 111.269 455.475 112.08 454.269 112.657C452.765 113.323 451.334 114.145 450 115.108L445.042 120.735L445.984 127.983C445.984 127.983 448.199 129.586 450.905 135.175C450.905 135.175 457.295 138.945 461.047 141.085C464.131 142.706 467.34 144.08 470.642 145.194C470.642 145.194 472.357 145.751 472.235 146.985C472.112 148.22 463.695 176.205 463.695 176.205L459.265 190.343C459.181 192.081 458.954 193.808 458.586 195.508C457.955 198.553 455.58 200.551 453.12 199.929L453.365 210.297C453.365 210.297 441.809 216.075 422.75 215.095C422.75 215.095 413.777 214.228 407.141 209.317L407.019 185.093L376.442 179.174C376.442 179.174 372.568 178.354 374.557 174.866C376.546 171.379 383.228 162.726 383.228 162.726L404.709 136.447C404.709 136.447 406.189 134.704 406.736 134.148C407.283 133.591 408.621 133.205 413.928 132.762C419.234 132.319 425.182 131.292 425.182 131.292C425.182 131.292 428.406 128.52 428.867 128.52C429.329 128.52 429.424 124.373 429.424 124.373C427.793 123.197 426.438 121.681 425.45 119.93C424.462 118.179 423.866 116.235 423.702 114.231C423.24 107.501 426.191 91.7322 426.191 91.7322L426.172 87.0854Z" fill="white"/>
<path d="M407.518 209.223C407.518 209.223 404.917 247.868 404.917 266.361C404.917 284.854 406.076 299.831 406.651 312.82C407.226 325.808 404.917 334.753 406.934 344.273C408.951 353.793 413.579 381.504 413.579 381.504L419.018 384.785C419.018 384.785 419.96 362.738 421.94 354.952C423.919 347.167 424.541 314.262 425.71 304.158C426.879 294.053 430.621 258.274 430.621 258.274C430.621 258.274 445.051 295.788 448.529 310.511C452.007 325.233 463.827 358.412 466.438 366.489C469.049 374.567 473.074 386.538 473.074 386.538C474.297 386.895 475.581 386.992 476.844 386.82C477.389 386.777 477.914 386.594 478.37 386.291C478.825 385.987 479.195 385.573 479.445 385.086C479.445 385.086 475.609 360.919 473.922 349.174C471.839 334.65 468.446 312.82 466.381 304.742C464.317 296.664 461.188 283.959 461.188 277.898C461.188 271.837 453.402 210.976 453.402 210.976C453.402 210.976 426.275 222.786 407.518 209.223Z" fill="#263238"/>
<path d="M430.602 258.274L419.027 244.776" stroke="white" stroke-width="0.530341" stroke-miterlimit="10" stroke-linecap="round"/>
<path d="M416.067 245.766L425.597 254.635" stroke="white" stroke-width="0.530341" stroke-miterlimit="10" stroke-linecap="round"/>
<path d="M436.436 246.756C438.876 240.582 443.411 235.463 449.246 232.297" stroke="white" stroke-width="0.530341" stroke-miterlimit="10" stroke-linecap="round"/>
<path d="M449.896 214.237C449.896 214.237 448.586 219.157 450.226 222.117C451.866 225.077 453.515 225.077 453.515 225.077C453.515 225.077 456.466 241.166 456.466 250.366C456.466 259.565 454.496 260.545 456.466 270.725C458.436 280.905 459.755 284.194 459.755 290.104C459.755 296.014 462.376 299.963 464.675 303.573C466.975 307.184 467.635 317.712 467.635 321.963C467.635 326.214 468.945 330.832 470.265 335.102C470.265 335.102 470.576 344.679 472.235 346.922C473.894 349.165 474.205 356.781 474.205 356.781" stroke="white" stroke-width="0.530341" stroke-miterlimit="10" stroke-linecap="round"/>
<path d="M428.226 256.936C428.226 256.936 428.877 264.476 426.577 277.625C424.277 290.774 422.637 294.374 422.307 309.483C421.977 324.593 423.297 327.223 422.637 335.102C421.977 342.982 418.037 355.433 418.037 361.089C418.037 366.744 418.641 384.823 418.641 384.823" stroke="white" stroke-width="0.530341" stroke-miterlimit="10" stroke-linecap="round"/>
<path d="M420.997 216.208L421.657 218.838L425.927 219.818L425.267 216.538" stroke="white" stroke-width="0.530341" stroke-miterlimit="10" stroke-linecap="round"/>
<path d="M425.945 219.818C425.945 219.818 433.825 219.488 437.765 218.178L436.823 215.548" stroke="white" stroke-width="0.530341" stroke-miterlimit="10" stroke-linecap="round"/>
<path d="M440.376 214.888L441.319 218.177C441.319 218.177 447.624 217.819 448.567 216.876" stroke="white" stroke-width="0.530341" stroke-miterlimit="10" stroke-linecap="round"/>
<path d="M421.657 218.837C419.479 218.769 417.345 218.205 415.417 217.188L412.457 215.548L413.4 213.248" stroke="white" stroke-width="0.530341" stroke-miterlimit="10" stroke-linecap="round"/>
<path d="M413.579 381.505C413.579 381.505 399.441 390.733 397.414 395.059C395.387 399.385 403.475 397.66 409.243 395.351C415.012 393.042 418.669 384.785 418.669 384.785L413.579 381.505Z" fill="white" stroke="#263238" stroke-width="1.06068" stroke-miterlimit="10" stroke-linecap="round"/>
<path d="M473.526 386.661C474.239 390.614 475.643 394.411 477.673 397.878C480.784 402.713 486.656 406.86 486.656 399.254C486.656 391.647 479.408 385.115 479.408 385.115C479.408 385.115 475.807 387.066 473.526 386.661Z" fill="white" stroke="#263238" stroke-width="1.06068" stroke-miterlimit="10" stroke-linecap="round"/>
<path d="M426.087 92.3076C426.087 92.3076 423.023 111.31 424.06 116.023C426.426 126.57 434.73 126.117 439.924 124.1C444.778 122.215 449.623 115.551 450.245 114.675C450.289 114.613 450.352 114.567 450.424 114.543C451.197 114.326 455.994 112.799 458.106 109.095C460.415 105.051 456.089 103.326 456.089 103.326" fill="white"/>
<mask id="mask0_83_3641" style="mask-type:luminance" maskUnits="userSpaceOnUse" x="423" y="92" width="36" height="34">
<path d="M426.087 92.3076C426.087 92.3076 423.023 111.31 424.06 116.023C426.426 126.57 434.73 126.117 439.924 124.1C444.778 122.215 449.623 115.551 450.245 114.675C450.289 114.613 450.352 114.567 450.424 114.543C451.197 114.326 455.994 112.799 458.106 109.095C460.415 105.051 456.089 103.326 456.089 103.326" fill="white"/>
</mask>
<g mask="url(#mask0_83_3641)">
<g style="mix-blend-mode:multiply" opacity="0.5">
<path d="M445.739 119.566L450.32 114.533C450.32 114.533 455.74 112.865 458.106 109.047C459.491 106.813 458.728 104.862 457.889 104.334C456.739 103.712 455.553 103.161 454.335 102.685L452.799 106.069L451.489 106.295C451.489 106.295 452.036 102.807 450.452 100.743C448.869 98.679 448.51 92.7031 448.51 92.7031C448.51 92.7031 446.295 104.617 446.022 109.603C445.952 112.378 445.085 115.074 443.524 117.37C443.524 117.37 443.807 120.415 444.354 123.459C444.42 123.817 444.486 124.354 444.552 125.024L445.306 123.817L445.72 124.967C445.249 122.988 445.032 120.886 445.739 119.566Z" fill="#92E3A9"/>
</g>
</g>
<path d="M426.087 92.3076C426.087 92.3076 423.023 111.31 424.06 116.023C426.426 126.57 434.73 126.117 439.924 124.1C444.778 122.215 449.623 115.551 450.245 114.675C450.289 114.613 450.352 114.567 450.424 114.543C451.197 114.326 455.994 112.799 458.106 109.095C460.415 105.051 456.089 103.326 456.089 103.326" stroke="#263238" stroke-width="1.06068" stroke-miterlimit="10" stroke-linecap="round"/>
<path d="M437.812 101.969C437.633 102.723 437.812 103.402 438.161 103.486C438.51 103.571 438.981 103.043 439.16 102.299C439.339 101.554 439.16 100.875 438.811 100.781C438.463 100.687 437.991 101.224 437.812 101.969Z" fill="#263238"/>
<path d="M429.716 99.9994C429.537 100.753 429.716 101.432 430.064 101.517C430.413 101.602 430.884 101.074 431.064 100.329C431.243 99.5847 431.064 98.8966 430.715 98.8118C430.366 98.727 429.885 99.2454 429.716 99.9994Z" fill="#263238"/>
<path d="M442.836 98.6703C442.391 97.8866 441.757 97.2268 440.991 96.751C440.225 96.2752 439.353 95.9985 438.453 95.9463" stroke="#263238" stroke-width="1.06068" stroke-miterlimit="10" stroke-linecap="round"/>
<path d="M432.251 96.0877C431.509 95.7634 430.686 95.6726 429.891 95.8276C429.097 95.9825 428.368 96.3757 427.802 96.9548" stroke="#263238" stroke-width="1.06068" stroke-miterlimit="10" stroke-linecap="round"/>
<path d="M432.798 99.5186C432.816 100.781 432.721 102.043 432.515 103.289C432.204 104.863 430.979 105.174 431.29 106.39C431.601 107.606 433.175 107.728 433.175 107.728" stroke="#263238" stroke-width="1.06068" stroke-miterlimit="10" stroke-linecap="round"/>
<path d="M434.815 112.638C435.482 112.851 436.187 112.916 436.882 112.83C437.577 112.744 438.245 112.508 438.84 112.139" stroke="#263238" stroke-width="1.06068" stroke-miterlimit="10" stroke-linecap="round"/>
<path d="M449.745 79.0365C449.745 79.0365 443.402 73.5508 437.341 73.5508C431.28 73.5508 426.37 77.0194 422.618 77.321C418.867 77.6227 416.275 74.1446 413.965 78.7632C411.656 83.3817 420.318 91.1767 426.087 92.3266C431.855 93.4766 439.933 91.7517 442.242 91.4595C444.455 91.3078 446.675 91.3078 448.887 91.4595C448.887 91.4595 447.153 96.9452 448.887 98.6795C450.622 100.414 450.905 101.564 450.905 102.714C451.003 103.983 451.196 105.243 451.48 106.484L453.214 107.068L454.081 103.892C456.421 101.397 458.02 98.2995 458.7 94.947C459.557 89.7534 455.231 84.5788 455.231 84.5788L449.745 79.0365Z" fill="#263238"/>
<path d="M425.446 89.9605C425.446 89.9605 435.315 91.8456 443.044 88.6314C450.773 85.4173 444.109 79.0361 444.109 79.0361" stroke="white" stroke-width="0.530341" stroke-miterlimit="10" stroke-linecap="round"/>
<path d="M445.739 78.499C446.54 78.499 453.204 83.5606 451.866 87.2931C450.527 91.0257 447.869 91.299 447.869 91.299" stroke="white" stroke-width="0.530341" stroke-miterlimit="10" stroke-linecap="round"/>
<path d="M444.646 192.992L436.314 188.6C434.172 188.482 432.042 188.204 429.942 187.771C428 187.215 408.074 185.311 408.074 185.311L407.773 190.023C407.773 190.023 430.498 193.077 435.201 193.633C439.905 194.189 444.071 196.405 444.9 197.79C445.73 199.176 447.398 200.561 446.569 204.388C445.739 208.215 440.197 213.814 440.197 213.814C439.933 213.418 453.525 212.438 453.393 210.986C453.101 208.102 451.564 199.675 451.564 199.675L444.646 192.992Z" fill="#92E3A9"/>
<path opacity="0.5" d="M444.646 192.992L436.314 188.6C434.172 188.482 432.042 188.204 429.942 187.771C428 187.215 408.074 185.311 408.074 185.311L407.773 190.023C407.773 190.023 430.498 193.077 435.201 193.633C439.905 194.189 444.071 196.405 444.9 197.79C445.73 199.176 447.398 200.561 446.569 204.388C445.739 208.215 440.197 213.814 440.197 213.814C439.98 213.39 453.553 212.428 453.393 210.986C452.95 207.31 451.564 199.675 451.564 199.675L444.646 192.992Z" fill="white"/>
<path d="M472.131 146.882C471.396 143.432 465.91 143.894 462.602 141.981C459.293 140.067 451.291 135.637 451.291 135.637L447.417 129.812C446.718 128.242 446.153 126.615 445.73 124.949L445.315 123.799L444.561 125.005C445.042 130.171 445.504 143.395 445.504 143.395L447.163 151.708C447.163 151.708 453.544 179.137 455.203 185.235C456.861 191.334 456.861 195.481 455.759 197.422C454.656 199.364 455.023 200.25 455.023 200.25C455.023 200.25 459.35 196.904 459.086 193.586C458.737 189.684 472.649 149.22 472.131 146.882Z" fill="#92E3A9"/>
<path opacity="0.5" d="M472.131 146.882C471.754 143.376 465.91 143.894 462.602 141.981C459.293 140.067 451.291 135.637 451.291 135.637L447.417 129.812C446.718 128.242 446.153 126.615 445.73 124.949L445.315 123.799L444.561 125.005C445.042 130.171 445.504 143.395 445.504 143.395L447.163 151.708C447.163 151.708 453.544 179.137 455.203 185.235C456.861 191.334 456.861 195.481 455.759 197.422C454.656 199.364 455.023 200.25 455.023 200.25C455.023 200.25 459.472 196.895 459.086 193.586C458.643 190.033 472.47 149.795 472.131 146.882Z" fill="white"/>
<path d="M447.917 143.423C447.917 143.423 446.182 127.842 445.315 123.799C444.448 119.755 445.032 117.455 441.281 117.455C437.53 117.455 432.911 116.871 433.74 118.897C434.57 120.924 440.338 119.18 441.281 120.047C442.224 120.914 441.564 122.931 441.564 122.931C441.564 122.931 434.023 123.516 434.023 125.533C434.023 127.55 434.315 133.073 435.758 133.611C437.2 134.148 437.775 131.019 437.775 131.019C437.775 131.019 438.067 137.617 439.509 139.964C440.427 141.413 441.492 142.765 442.685 143.998L447.917 143.423Z" fill="white" stroke="#263238" stroke-width="1.06068" stroke-miterlimit="10" stroke-linecap="round"/>
<path d="M442.723 147.749C442.723 147.749 441.856 183.567 443.298 189.307C444.74 195.047 452.535 202.87 456.569 199.119C460.603 195.368 458.596 187.29 458.596 183.538C458.596 179.787 449.359 152.085 449.359 150.059C449.221 148.376 448.83 146.723 448.199 145.157" stroke="#263238" stroke-width="1.06068" stroke-miterlimit="10" stroke-linecap="round"/>
<path d="M443.298 152.085L449.067 151.501" stroke="#263238" stroke-width="1.06068" stroke-miterlimit="10" stroke-linecap="round"/>
<path d="M406.406 169.994L407.518 138.126C407.518 138.126 406.133 137.296 405.577 140.341C405.021 143.385 404.747 149.493 404.747 149.493C404.747 149.493 398.093 145.336 399.761 147.825C401.429 150.313 404.191 155.865 404.191 155.865L393.898 166.11L398.611 168.052L406.406 169.994Z" fill="#92E3A9"/>
<path opacity="0.5" d="M406.406 169.994L407.518 138.126C407.518 138.126 406.133 137.296 405.577 140.341C405.021 143.385 404.747 149.493 404.747 149.493C404.747 149.493 398.093 145.336 399.761 147.825C401.429 150.313 404.191 155.865 404.191 155.865L393.898 166.11L398.611 168.052L406.406 169.994Z" fill="white"/>
<path d="M420.205 145.242C420.205 145.242 419.677 147.127 421.892 147.127C424.107 147.127 428 145.553 428 145.553L427.717 142.424C427.717 142.424 422.392 145.016 420.205 145.242Z" fill="#92E3A9"/>
<path opacity="0.5" d="M420.205 145.242C420.205 145.242 419.677 147.127 421.892 147.127C424.107 147.127 428 145.553 428 145.553L427.717 142.424C427.717 142.424 422.392 145.016 420.205 145.242Z" fill="white"/>
<path d="M429.716 124.166C429.716 124.166 426.832 141.132 428.566 144.902C430.3 148.673 432.892 147.787 434.909 146.062C436.926 144.337 439.528 140.001 439.528 140.001" stroke="#263238" stroke-width="1.06068" stroke-miterlimit="10" stroke-linecap="round"/>
<path d="M406.934 185.556L407.518 209.223C407.518 209.223 414.116 215.567 426.85 215.567C439.584 215.567 453.402 210.948 453.402 210.948V202.578" stroke="#263238" stroke-width="1.06068" stroke-miterlimit="10" stroke-linecap="round"/>
<path d="M445.899 127.55C445.899 127.55 451.093 132.743 451.093 137.654C451.093 142.565 450.226 143.715 450.226 143.715" stroke="#263238" stroke-width="1.06068" stroke-miterlimit="10" stroke-linecap="round"/>
<path d="M450.509 134.771C450.509 134.771 458.304 139.38 462.63 141.981C466.956 144.583 472.159 144.573 472.159 146.882C472.159 149.192 460.038 188.44 460.038 188.44" stroke="#263238" stroke-width="1.06068" stroke-miterlimit="10" stroke-linecap="round"/>
<path d="M455.419 147.749L452.535 159.295" stroke="#263238" stroke-width="1.06068" stroke-miterlimit="10" stroke-linecap="round"/>
<path d="M407.009 154.526L402.344 144.742" stroke="#263238" stroke-width="0.530341" stroke-miterlimit="10" stroke-linecap="round"/>
<path d="M407.009 157.326L400.016 153.132" stroke="#263238" stroke-width="0.530341" stroke-miterlimit="10" stroke-linecap="round"/>
<path d="M429.829 179.212L428.434 186.206" stroke="#263238" stroke-width="0.530341" stroke-miterlimit="10" stroke-linecap="round"/>
<path d="M467.56 146.608C467.56 146.608 460.575 148.003 454.053 155.921" stroke="#263238" stroke-width="0.530341" stroke-miterlimit="10" stroke-linecap="round"/>
<path d="M462.903 146.185C462.903 146.185 461.018 145.713 454.524 151.303" stroke="#263238" stroke-width="0.530341" stroke-miterlimit="10" stroke-linecap="round"/>
<path d="M429.829 148.475L427.039 170.361L429.367 170.832L431.233 163.848" stroke="#263238" stroke-width="0.530341" stroke-miterlimit="10" stroke-linecap="round"/>
<path d="M431.695 205.764C423.306 212.757 411.666 212.286 411.666 212.286" stroke="#263238" stroke-width="0.530341" stroke-miterlimit="10" stroke-linecap="round"/>
<path d="M396.245 167.75C396.245 167.75 390.543 162.528 382.465 169.173" stroke="#263238" stroke-width="0.530341" stroke-miterlimit="10" stroke-linecap="round"/>
<path d="M429.16 128.417C429.16 128.417 426.85 128.992 424.249 133.036C421.647 137.079 418.48 143.998 420.79 144.573C423.099 145.147 427.388 142.555 427.388 142.555" stroke="#263238" stroke-width="1.06068" stroke-miterlimit="10" stroke-linecap="round"/>
<path d="M438.104 143.715L440.989 146.307" stroke="#263238" stroke-width="1.06068" stroke-miterlimit="10" stroke-linecap="round"/>
<path d="M425.116 131.302C425.116 131.302 414.437 132.744 410.11 133.036C405.784 133.328 406.623 134.921 405.209 135.92C402.928 137.513 376.762 170.682 375.047 173.859C373.332 177.035 373.605 178.477 376.489 179.344C379.373 180.211 408.103 185.264 408.103 185.264L433.486 187.865L435.503 181.512C435.503 181.512 441.403 182.294 442.44 182.294" stroke="#263238" stroke-width="1.06068" stroke-miterlimit="10" stroke-linecap="round"/>
<path d="M432.619 179.174C427.017 177.549 421.601 175.337 416.463 172.576" stroke="#263238" stroke-width="1.06068" stroke-miterlimit="10" stroke-linecap="round"/>
<path d="M414.154 171.991C414.154 171.991 405.671 168.843 401.081 168.268C396.49 167.693 389.459 167.505 389.459 167.505" stroke="#263238" stroke-width="1.06068" stroke-miterlimit="10" stroke-linecap="round"/>
<path d="M406.359 168.24L407.226 145.439" stroke="#263238" stroke-width="1.06068" stroke-miterlimit="10" stroke-linecap="round"/>
<path d="M433.486 187.864C435.466 188.86 437.541 189.656 439.679 190.24" stroke="#263238" stroke-width="1.06068" stroke-miterlimit="10" stroke-linecap="round"/>
<path d="M55.8289 169.494L59.2316 150.897L80.7691 142.414C80.7691 142.414 81.8154 136.636 82.8711 136.382C83.9267 136.127 84.9636 133.752 84.9636 133.752L84.4451 128.992C84.4451 128.992 86.4151 121.452 96.3214 127.324C96.3214 127.324 93.3241 129.322 93.8425 130.152C94.3609 130.981 93.2675 133.62 94.5777 133.62C95.8879 133.62 98.5365 135.289 99.8749 136.636C100.812 137.643 101.639 138.745 102.344 139.926L113.495 140.567C114.638 140.576 115.775 140.732 116.879 141.029C117.067 135.581 116.398 131.424 115.078 128.191C110.281 116.522 101.534 112.356 100.28 106.512C99.0266 100.668 99.6581 100.055 99.6581 100.055C100.933 98.7594 101.866 97.1675 102.374 95.4221C102.883 93.6768 102.95 91.8327 102.571 90.0549C101.326 83.8057 96.5288 79.4228 79.2328 78.5933C61.9367 77.7638 64.4439 89.6307 64.4439 89.6307L64.6513 90.4602C64.6513 90.4602 53.6045 94.2304 55.6969 108.171C57.7894 122.111 63.8218 128.172 63.6145 132.546C63.4071 136.919 56.9411 138.587 47.77 148.569C38.5988 158.551 36.7326 173.566 40.484 183.359C42.3691 188.176 46.0545 192.191 50.6825 195.188L55.8289 169.494Z" fill="#263238"/>
<path d="M70.269 171.332V175.536L62.2855 200.203C67.2742 201.523 72.5059 201.633 77.5456 200.523C80.3904 199.782 83.1095 198.622 85.6139 197.083L70.269 171.332Z" fill="#263238"/>
<path d="M93.2205 130.001L94.163 134.242C94.163 134.242 96.9907 131.415 102.514 140.002C102.514 140.002 113.995 139.728 117.124 141.293C117.124 141.293 117.774 141.481 119.895 143.734C122.016 145.987 129.99 153.16 129.99 153.16C129.99 153.16 140.226 162.661 141.244 163.396C142.262 164.131 146.079 167.779 148.935 169.051L156.589 151.623L160.001 142.999L161.886 135.901H162.489L162.621 130.18L162.16 123.356C162.235 123.009 162.393 122.685 162.621 122.413C163.412 121.318 164.02 120.102 164.422 118.813C164.422 118.172 163.771 114.383 163.771 114.383C163.771 114.383 163.451 113.44 164.148 113.327C164.846 113.214 167.419 114.109 167.74 115.91L168.682 115.589C169.463 113.724 170.436 111.946 171.585 110.282C173.112 108.303 174.677 107.059 175.648 107.7C175.914 107.884 176.106 108.156 176.189 108.469C176.272 108.782 176.24 109.114 176.1 109.406L173.065 114.986C173.065 114.986 171.727 116.786 173.385 117.427C173.385 117.427 176.977 119.736 177.212 121.763C177.448 123.789 176.147 125.533 174.997 127.022C173.847 128.512 171.821 131.735 171.821 131.735L169.464 133.818L168.522 137.409L169.634 138.795L167.975 145.987L166.778 151.378L166.175 154.649L162.405 167.562L158.634 178.816C158.634 178.816 156.693 185.263 151.989 185.084C147.286 184.905 142.13 182.36 140.462 181.531C138.793 180.701 125.041 173.519 125.041 173.519L122.214 172.181C122.591 173.468 122.754 174.809 122.694 176.149C122.647 178.637 119.97 184.123 119.188 185.367L118.726 195.094C118.544 196.782 118.575 198.486 118.82 200.165C119.235 202.701 121.356 217.047 121.818 218.838C121.818 218.838 117.237 222.985 103.589 224.955C89.9403 226.925 83.5498 223.729 83.5498 223.729L77.4702 220.157L84.9636 205.349C84.9636 205.349 86.8487 200.948 86.6602 199.788C86.4717 198.629 83.2481 193.633 83.2481 193.633L71.419 172.577L70.8628 172.765L69.0249 178.911L62.3798 199.751L53.6328 225.765C53.6328 225.765 51.2387 232.363 50.249 234.314L47.4873 242.732C47.6407 244.235 48.0122 245.708 48.5901 247.105L41.6434 242.609L42.8781 236.011L44.4145 226.171L46.2996 215.473L47.9586 206.622L50.6072 194.821L51.5497 191.56L53.4348 182.341L56.7527 165.62L59.5804 151.303L79.3742 143.432L80.609 142.49C80.8835 140.668 81.5526 138.927 82.5695 137.391C83.2753 136.38 84.1156 135.469 85.0673 134.685C85.0673 134.685 84.973 133.451 84.907 132.282C84.8411 131.113 84.5394 128.964 84.5394 128.964C84.5394 128.964 90.6567 131.594 93.2205 130.001Z" fill="white"/>
<path d="M66.7061 92.1194C66.7061 92.1194 70.3727 84.0039 77.7058 84.0039C85.039 84.0039 100.224 98.4063 100.224 98.4063" stroke="white" stroke-width="0.530341" stroke-miterlimit="10" stroke-linecap="round"/>
<path d="M69.8449 93.4015C69.8449 93.4015 74.2938 88.6887 79.7983 90.5172C85.3029 92.3458 86.0852 98.8966 86.0852 98.8966" stroke="white" stroke-width="0.530341" stroke-miterlimit="10" stroke-linecap="round"/>
<path d="M66.1783 94.2119C66.1783 94.2119 59.6369 97.8785 59.1091 104.693C58.5812 111.508 68.2708 119.614 69.581 128.785C70.8911 137.956 64.0858 140.039 53.0861 147.636C42.0864 155.233 43.9244 172.247 46.2808 175.913" stroke="white" stroke-width="0.530341" stroke-miterlimit="10" stroke-linecap="round"/>
<path d="M47.5909 178.016C47.5909 178.016 49.1556 181.418 51.512 182.465" stroke="white" stroke-width="0.530341" stroke-miterlimit="10" stroke-linecap="round"/>
<path d="M66.9701 112.017C66.6603 112.682 66.5213 113.414 66.5658 114.146C66.6102 114.878 66.8366 115.588 67.2246 116.211C68.5347 118.567 78.5353 130.349 77.7059 135.854C76.8764 141.359 71.6829 144.752 71.6829 144.752" stroke="white" stroke-width="0.530341" stroke-miterlimit="10" stroke-linecap="round"/>
<path d="M71.9373 94.2119C71.9373 94.2119 65.9143 96.8322 66.1783 102.855C66.4422 108.878 67.7523 110.452 67.7523 110.452" stroke="white" stroke-width="0.530341" stroke-miterlimit="10" stroke-linecap="round"/>
<path d="M100.224 114.138C102.095 118.374 104.663 122.268 107.821 125.656C112.534 130.369 113.052 137.183 113.052 137.183" stroke="white" stroke-width="0.530341" stroke-miterlimit="10" stroke-linecap="round"/>
<path d="M105.719 129.04C105.719 129.04 108.075 134.545 108.075 137.947" stroke="white" stroke-width="0.530341" stroke-miterlimit="10" stroke-linecap="round"/>
<path d="M92.6832 130.5L85.284 137.164C85.284 137.164 84.4923 139.181 83.003 142.414C81.5138 145.647 81.7589 151.84 81.7589 151.84L86.3209 160.917C86.3209 160.917 77.5456 150.85 77.046 149.606C76.5465 148.362 67.3659 150.605 65.6316 151.35C63.8973 152.094 61.654 153.584 62.1535 155.818C62.6531 158.051 64.887 161.021 63.8879 161.52C62.8887 162.02 60.1647 160.775 60.1647 162.265C60.1647 163.754 63.3977 169.466 61.9085 171.445C60.4192 173.425 50.9842 205.453 50.9842 205.453C50.9842 205.453 56.9412 200.486 55.4519 202.474C53.9626 204.463 46.7709 220.591 46.7709 220.591L44.0375 230.016L50.494 196.517L55.9515 168.241L59.2316 150.897C62.3986 149.842 80.7692 142.414 80.7692 142.414C80.7692 142.414 82.2207 136.306 84.9636 133.752L84.4452 128.992C84.4452 128.992 89.4502 130.745 92.6832 130.5Z" fill="#92E3A9"/>
<path opacity="0.5" d="M92.6832 130.5L85.284 137.164C85.284 137.164 84.4923 139.181 83.003 142.414C81.5138 145.647 81.7589 151.84 81.7589 151.84L86.3209 160.917C86.3209 160.917 77.5456 150.85 77.046 149.606C76.5465 148.362 67.3659 150.605 65.6316 151.35C63.8973 152.094 61.654 153.584 62.1535 155.818C62.6531 158.051 64.887 161.021 63.8879 161.52C62.8887 162.02 60.1647 160.775 60.1647 162.265C60.1647 163.754 63.3977 169.466 61.9085 171.445C60.4192 173.425 50.9842 205.453 50.9842 205.453C50.9842 205.453 56.9412 200.486 55.4519 202.474C53.9626 204.463 46.7709 220.591 46.7709 220.591L44.0375 230.016L50.494 196.517L55.9515 168.241L59.2316 150.897C62.3986 149.842 80.7692 142.414 80.7692 142.414C80.7692 142.414 81.165 136.759 84.973 134.78L84.4452 128.992C84.4452 128.992 89.4502 130.745 92.6832 130.5Z" fill="white"/>
<path d="M120.225 164C120.225 164 124.693 156.563 125.192 158.297C125.692 160.032 123.948 165.979 123.948 165.979C123.948 165.979 128.661 164.245 128.171 165.734C127.681 167.223 126.681 167.968 126.927 168.713C127.172 169.457 143.308 177.893 145.297 178.883C147.286 179.873 151.999 174.17 154.233 175.904C156.466 177.639 154.233 183.586 149.765 183.596C145.297 183.605 132.393 177.94 132.393 177.94L122.233 172.031" fill="#92E3A9"/>
<path opacity="0.5" d="M120.225 164C120.225 164 124.693 156.563 125.192 158.297C125.692 160.032 123.948 165.979 123.948 165.979C123.948 165.979 128.661 164.245 128.171 165.734C127.681 167.223 126.681 167.968 126.927 168.713C127.172 169.457 143.308 177.893 145.297 178.883C147.286 179.873 151.999 174.17 154.233 175.904C156.466 177.639 154.233 183.586 149.765 183.596C145.297 183.605 132.393 177.94 132.393 177.94L122.27 172.049" fill="white"/>
<path d="M93.4278 194.029C93.4278 194.029 122.44 178.646 117.727 184.349C113.014 190.051 97.396 196.517 93.4278 194.029Z" fill="#92E3A9"/>
<path opacity="0.5" d="M93.4278 194.029C93.4278 194.029 122.44 178.646 117.727 184.349C113.014 190.051 97.396 196.517 93.4278 194.029Z" fill="white"/>
<path d="M84.4452 129.04C84.4452 129.04 84.6525 132.999 85.2841 137.165C85.9156 141.331 85.6988 141.331 89.6576 146.327C93.6163 151.322 97.7825 155.498 98.4045 154.668" stroke="#263238" stroke-width="1.06068" stroke-miterlimit="10" stroke-linecap="round"/>
<path d="M98.6119 153.207C98.6119 153.207 99.0266 145.912 97.5751 141.123C96.1235 136.335 94.031 134.657 94.031 133.583C93.9606 132.463 93.8221 131.349 93.6163 130.246" stroke="#263238" stroke-width="1.06068" stroke-miterlimit="10" stroke-linecap="round"/>
<path d="M84.4452 135.081C82.7803 136.58 81.6156 138.554 81.1085 140.736C80.4864 144.064 79.8643 148.022 79.8643 148.022L86.3209 160.945C86.8831 158.695 87.7221 156.523 88.8187 154.479C89.3618 153.47 90.0653 152.557 90.9018 151.774" stroke="#263238" stroke-width="1.06068" stroke-miterlimit="10" stroke-linecap="round"/>
<path d="M100.073 149.663C100.529 149.549 101.003 149.527 101.467 149.598C101.932 149.669 102.377 149.832 102.778 150.078C104.446 150.917 107.783 155.29 107.783 155.29C107.783 155.29 105.493 144.451 101.534 138.833C97.5751 133.215 94.8605 133.621 94.8605 133.621" stroke="#263238" stroke-width="1.06068" stroke-miterlimit="10" stroke-linecap="round"/>
<path d="M79.2328 143.206L59.2316 150.897C59.2316 150.897 51.9456 190.692 49.231 201.315C46.5164 211.938 41.945 241.949 41.945 241.949L47.3553 242.986L49.2404 237.576" stroke="#263238" stroke-linecap="round" stroke-linejoin="round"/>
<path d="M50.2773 234.465C50.2773 234.465 51.5214 232.58 54.8581 222.212C58.1948 211.843 67.1114 186.394 68.6101 181.37C70.1088 176.346 71.3153 173.038 71.3153 173.038" stroke="#263238" stroke-width="1.06068" stroke-miterlimit="10" stroke-linecap="round"/>
<path d="M67.7712 166.921C67.7712 166.921 84.6431 197.083 86.1041 198.384C87.565 199.684 85.482 203.172 85.0578 205.048" stroke="#263238" stroke-width="1.06068" stroke-miterlimit="10" stroke-linecap="round"/>
<path d="M83.1916 208.836L77.7812 220.091C77.7812 220.091 81.3253 225.51 96.3215 225.51C105.246 225.538 114.042 223.389 121.95 219.252C121.95 219.252 118.406 200.504 118.613 197.167C118.82 193.831 119.245 185.084 119.245 185.084C119.245 185.084 123.015 179.428 122.572 175.083C122.129 170.738 120.281 165.705 120.281 164.875C120.281 164.046 119.867 155.082 119.867 155.082" stroke="#263238" stroke-width="1.06068" stroke-miterlimit="10" stroke-linecap="round"/>
<path d="M96.2932 190.316L111.223 181.154" stroke="#263238" stroke-width="0.530341" stroke-miterlimit="10" stroke-linecap="round"/>
<path d="M104.154 187.44L112.27 182.728" stroke="#263238" stroke-width="0.530341" stroke-miterlimit="10" stroke-linecap="round"/>
<path d="M148.832 169.249L145.787 176.705" stroke="#263238" stroke-width="0.530341" stroke-miterlimit="10" stroke-linecap="round"/>
<path d="M147.616 172.511L144.741 175.395" stroke="#263238" stroke-width="0.530341" stroke-miterlimit="10" stroke-linecap="round"/>
<path d="M62.5117 198.968C62.5117 198.968 57.535 204.727 54.1323 207.083" stroke="#263238" stroke-width="0.530341" stroke-miterlimit="10" stroke-linecap="round"/>
<path d="M59.6369 200.533C59.6369 200.533 50.9936 207.338 48.9011 208.913" stroke="#263238" stroke-width="0.530341" stroke-miterlimit="10" stroke-linecap="round"/>
<path d="M61.1733 152.085C63.7788 155.769 66.1403 159.62 68.2425 163.613" stroke="#263238" stroke-width="0.530341" stroke-miterlimit="10" stroke-linecap="round"/>
<path d="M69.0625 165.441L70.8911 168.58" stroke="#263238" stroke-width="0.530341" stroke-miterlimit="10" stroke-linecap="round"/>
<path d="M120.281 164.876L122.572 153.207" stroke="#263238" stroke-width="0.530341" stroke-miterlimit="10" stroke-linecap="round"/>
<path d="M121.12 165.705L124.655 160.709" stroke="#263238" stroke-width="0.530341" stroke-miterlimit="10" stroke-linecap="round"/>
<path d="M71.3153 173.001L61.3147 167.581" stroke="#263238" stroke-width="0.530341" stroke-miterlimit="10" stroke-linecap="round"/>
<path d="M98.1972 155.705C98.1972 155.705 101.967 163.246 103.202 168.628" stroke="#263238" stroke-width="0.530341" stroke-miterlimit="10" stroke-linecap="round"/>
<path d="M160.077 142.575C161.074 142.501 162.076 142.63 163.022 142.954C163.968 143.278 164.838 143.79 165.581 144.46" stroke="#263238" stroke-width="0.530341" stroke-miterlimit="10" stroke-linecap="round"/>
<path d="M45.5645 236.774L48.1471 237.736" stroke="#263238" stroke-width="0.530341" stroke-miterlimit="10" stroke-linecap="round"/>
<path d="M41.879 242.326C41.9114 245.91 41.7226 249.492 41.3135 253.053C40.6914 257.435 40.8988 267.436 41.7282 270.556C42.5577 273.676 42.9818 274.326 43.8113 272.441C44.6407 270.556 47.148 259.528 47.148 259.528C47.148 259.528 47.5627 266.814 49.4384 266.192C51.3141 265.57 50.2773 262.026 50.2773 258.896C50.2773 255.767 50.4846 254.73 50.2773 252.233C50.0699 249.735 47.2893 243.561 47.2893 243.561" fill="white"/>
<path d="M41.879 242.326C41.9114 245.91 41.7226 249.492 41.3135 253.053C40.6914 257.435 40.8988 267.436 41.7282 270.556C42.5577 273.676 42.9818 274.326 43.8113 272.441C44.6407 270.556 47.148 259.528 47.148 259.528C47.148 259.528 47.5627 266.814 49.4384 266.192C51.3141 265.57 50.2773 262.026 50.2773 258.896C50.2773 255.767 50.4846 254.73 50.2773 252.233C50.0699 249.735 47.2893 243.561 47.2893 243.561" stroke="#263238" stroke-miterlimit="10" stroke-linecap="round"/>
<path d="M162.508 135.741C162.414 133.898 162.414 132.051 162.508 130.208C162.678 128.474 161.99 125.882 162.16 123.61C162.329 121.339 164.582 120.5 164.233 117.559C163.884 114.618 163.196 114.27 163.715 113.581C164.233 112.893 167.485 113.921 167.692 115.825C167.877 117.784 167.877 119.756 167.692 121.716C167.523 122.234 168.729 125.486 168.041 126.9C167.647 127.666 167.355 128.48 167.174 129.322" stroke="#263238" stroke-width="0.880843" stroke-miterlimit="10" stroke-linecap="round"/>
<path d="M168.39 115.675C168.39 115.675 172.368 107.719 174.62 107.54C176.873 107.361 176.175 109.425 175.478 110.481C174.78 111.537 172.537 115.326 172.368 116.89C172.198 118.455 170.115 123.63 170.115 123.63" stroke="#263238" stroke-width="0.880843" stroke-miterlimit="10" stroke-linecap="round"/>
<path d="M172.396 116.89C172.396 116.89 178.456 120.519 177.109 123.488C175.761 126.457 175.026 127.644 173.989 127.258C173.069 126.788 172.247 126.148 171.566 125.373" stroke="#263238" stroke-width="0.880843" stroke-miterlimit="10" stroke-linecap="round"/>
<path d="M174.62 127.268C174.62 127.268 173.056 129.86 171.849 131.424C171.155 132.328 170.333 133.125 169.408 133.79L168.673 136.344" stroke="#263238" stroke-width="0.880843" stroke-miterlimit="10" stroke-linecap="round"/>
<path d="M101.949 139.87C101.949 139.87 116.323 139.663 118.198 141.953C120.074 144.244 142.79 165.084 145.533 166.96C148.276 168.835 148.869 169.25 148.869 169.25C148.869 169.25 160.114 143.801 160.114 142.575C160.114 141.35 161.999 135.704 161.999 135.704C161.999 135.704 165.543 136.119 166.382 136.119C167.221 136.119 169.502 138.833 169.502 138.833C169.502 138.833 166.382 151.539 166.382 152.972C166.382 154.405 160.548 174.227 157.833 180.306C155.119 186.386 151.377 185.509 145.335 183.633C139.293 181.758 122.836 172.389 122.836 172.389" stroke="#263238" stroke-width="1.06068" stroke-miterlimit="10" stroke-linecap="round"/>
<path d="M77.7812 220.092C77.7812 220.092 69.4395 240.96 67.1868 255.164C64.9341 269.369 65.8955 302.585 65.2451 306.138C64.5948 309.692 55.565 326.46 55.565 334.528C55.565 342.597 50.7296 384.211 50.7296 384.211L53.9532 386.143C53.9532 386.143 65.264 351.268 69.4395 342.267C73.6151 333.265 79.4401 311.944 81.0519 307.75C82.6637 303.556 93.965 270 94.606 265.806C95.2469 261.611 99.1209 251.29 99.1209 251.29C99.1209 251.29 107.51 302.585 109.121 313.236C110.733 323.887 122.025 381.628 122.025 381.628C122.767 381.809 123.525 381.917 124.287 381.949C125.23 381.949 125.579 380.337 125.579 380.337C125.579 380.337 130.094 339.364 128.802 328.392C127.511 317.421 123.646 303.885 123.646 300.002C123.646 296.119 129.453 262.582 129.453 250.989C129.453 239.395 121.912 219.271 121.912 219.271C121.912 219.271 95.1527 232.769 77.7812 220.092Z" fill="#263238"/>
<path d="M123.524 302.132C123.524 302.132 120.649 314.442 116.719 320.983" stroke="white" stroke-width="0.530341" stroke-miterlimit="10" stroke-linecap="round"/>
<path d="M122.742 314.705C122.742 314.705 120.385 323.603 115.672 327.797" stroke="white" stroke-width="0.530341" stroke-miterlimit="10" stroke-linecap="round"/>
<path d="M66.97 310.775C66.97 310.775 68.7986 321.511 70.8911 325.96" stroke="white" stroke-width="0.530341" stroke-miterlimit="10" stroke-linecap="round"/>
<path d="M66.4422 317.062C66.4422 317.062 68.0163 324.66 70.8911 329.108" stroke="white" stroke-width="0.530341" stroke-miterlimit="10" stroke-linecap="round"/>
<path d="M99.9598 251.338L110.432 242.694" stroke="white" stroke-width="0.530341" stroke-miterlimit="10" stroke-linecap="round"/>
<path d="M104.937 247.671L117.246 242.166" stroke="white" stroke-width="0.530341" stroke-miterlimit="10" stroke-linecap="round"/>
<path d="M77.9603 233.005C77.9603 233.005 86.0852 238.236 90.7981 242.694" stroke="white" stroke-width="0.530341" stroke-miterlimit="10" stroke-linecap="round"/>
<path d="M51.069 384.182C51.069 384.182 38.8157 394.55 38.8157 399.696C38.8157 404.843 43.651 404.532 48.8163 399.696C53.9815 394.861 54.2455 384.898 54.2455 384.898L51.069 384.182Z" fill="white" stroke="#263238" stroke-width="1.06068" stroke-miterlimit="10" stroke-linecap="round"/>
<path d="M122.025 381.628C122.025 381.628 126.22 391.949 130.744 396.474C135.268 400.998 137.841 402.6 137.841 397.755C137.841 392.911 134.938 387.434 125.588 380.337C125.579 380.337 128.161 382.269 122.025 381.628Z" fill="white" stroke="#263238" stroke-width="1.06068" stroke-miterlimit="10" stroke-linecap="round"/>
<path d="M78.7427 95.9464C77.9038 95.6354 77.1121 95.2584 76.292 94.9096C75.472 94.5609 73.9733 94.3724 73.4078 96.9456C72.5689 100.716 78.4034 103.826 76.5277 106.946C75.3608 108.844 73.607 110.31 71.5321 111.122C71.1943 111.238 70.8424 111.308 70.4858 111.329C68.8175 111.536 66.1123 111.329 66.9418 114.242C67.7713 117.154 70.4858 119.661 72.1542 119.661H73.8225C73.8225 119.661 75.7076 125.317 82.7769 128.408C89.8461 131.5 94.6532 131.33 96.3215 127.372C97.9898 123.413 99.2435 120.076 99.2435 114.864C99.2435 109.651 97.3583 100.904 97.3583 100.904C97.3583 100.904 95.69 103.204 89.2334 100.282C84.9636 98.35 80.9671 96.7853 78.7427 95.9464Z" fill="white"/>
<mask id="mask1_83_3641" style="mask-type:luminance" maskUnits="userSpaceOnUse" x="66" y="94" width="34" height="37">
<path d="M78.7428 95.9464C77.9039 95.6354 77.1121 95.2584 76.2921 94.9096C75.4721 94.5609 73.9734 94.3724 73.4078 96.9456C72.569 100.716 78.4034 103.826 76.5277 106.946C75.3608 108.844 73.6071 110.31 71.5322 111.122C71.1944 111.238 70.8424 111.308 70.4859 111.329C68.8176 111.536 66.1124 111.329 66.9419 114.242C67.7713 117.154 70.4859 119.661 72.1542 119.661H73.8226C73.8226 119.661 75.7077 125.317 82.7769 128.408C89.8462 131.5 94.6532 131.33 96.3216 127.372C97.9899 123.413 99.2435 120.076 99.2435 114.864C99.2435 109.651 97.3584 100.904 97.3584 100.904C97.3584 100.904 95.6901 103.204 89.2335 100.282C84.9637 98.35 80.9672 96.7853 78.7428 95.9464Z" fill="white"/>
</mask>
<g mask="url(#mask1_83_3641)">
<g style="mix-blend-mode:multiply" opacity="0.5">
<path d="M89.2429 100.282C89.2429 100.282 79.28 99.7256 77.7908 99.9706C76.3015 100.216 78.0358 104.683 77.5457 109.151C77.0556 113.619 77.2912 120.82 79.28 123.054C81.6269 125.357 84.1137 127.514 86.7263 129.511C86.7263 129.511 79.0821 128.276 76.3015 125.043C73.521 121.81 73.078 120.076 73.078 120.076C73.078 120.076 66.6214 116.305 66.1218 113.374C65.6223 110.443 69.8921 111.998 71.9375 110.546C73.0874 109.754 77.8473 108.265 76.6503 104.297C75.4532 100.329 73.521 99.5842 73.4456 96.9262C73.389 95.041 75.0479 94.4943 76.0659 94.3247C76.5248 94.2474 76.9964 94.3167 77.4137 94.5226L89.2429 100.282Z" fill="#92E3A9"/>
</g>
</g>
<path d="M78.7427 95.9464C77.9038 95.6354 77.1121 95.2584 76.292 94.9096C75.472 94.5609 73.9733 94.3724 73.4078 96.9456C72.5689 100.716 78.4034 103.826 76.5277 106.946C75.3608 108.844 73.607 110.31 71.5321 111.122C71.1943 111.238 70.8424 111.308 70.4858 111.329C68.8175 111.536 66.1123 111.329 66.9418 114.242C67.7713 117.154 70.4858 119.661 72.1542 119.661H73.8225C73.8225 119.661 75.7076 125.317 82.7769 128.408C89.8461 131.5 94.6532 131.33 96.3215 127.372C97.9898 123.413 99.2435 120.076 99.2435 114.864C99.2435 109.651 97.3583 100.904 97.3583 100.904C97.3583 100.904 95.69 103.204 89.2334 100.282C84.9636 98.35 80.9671 96.7853 78.7427 95.9464Z" stroke="#263238" stroke-width="1.06068" stroke-miterlimit="10" stroke-linecap="round"/>
<path d="M86.1041 108.294C86.236 109.085 86.0192 109.783 85.6139 109.849C85.2086 109.915 84.7939 109.321 84.6714 108.529C84.5488 107.738 84.7656 107.031 85.1615 106.965C85.5574 106.899 85.9721 107.54 86.1041 108.294Z" fill="#263238"/>
<path d="M94.7285 106.851C94.8511 107.643 94.6343 108.34 94.2384 108.406C93.8425 108.472 93.4184 107.878 93.2958 107.087C93.1733 106.295 93.3807 105.597 93.7765 105.531C94.1724 105.465 94.5966 106.059 94.7285 106.851Z" fill="#263238"/>
<path d="M81.1085 104.448C81.6359 103.664 82.3513 103.025 83.1894 102.588C84.0275 102.152 84.9615 101.933 85.9062 101.95" stroke="#263238" stroke-width="1.06068" stroke-miterlimit="10" stroke-linecap="round"/>
<path d="M92.3627 102.572C93.1633 102.292 94.0301 102.262 94.8482 102.486C95.6662 102.71 96.3969 103.177 96.9435 103.826" stroke="#263238" stroke-width="1.06068" stroke-miterlimit="10" stroke-linecap="round"/>
<path d="M91.5332 106.116C91.4181 107.433 91.4181 108.758 91.5332 110.075C91.7406 111.743 92.9848 112.158 92.5701 113.412C92.1553 114.665 90.487 114.656 90.487 114.656" stroke="#263238" stroke-width="1.06068" stroke-miterlimit="10" stroke-linecap="round"/>
<path d="M88.404 119.661C87.6901 119.83 86.9482 119.842 86.2292 119.697C85.5101 119.553 84.8308 119.254 84.2378 118.822" stroke="#263238" stroke-width="1.06068" stroke-miterlimit="10" stroke-linecap="round"/>
</svg>
