<svg width="28" height="28" viewBox="0 0 28 28" fill="none" xmlns="http://www.w3.org/2000/svg">
<path fill-rule="evenodd" clip-rule="evenodd" d="M7.32248 12.2958C7.68416 12.6591 7.68285 13.2468 7.31956 13.6084C5.36618 15.5532 5.37018 18.7195 7.32248 20.6805C9.26719 22.6339 12.4335 22.6298 14.3945 20.6775C16.3497 18.731 16.3519 15.5658 14.393 13.607C14.0306 13.2445 14.0306 12.6568 14.393 12.2943C14.7555 11.9318 15.3432 11.9318 15.7057 12.2943C18.3879 14.9765 18.39 19.3193 15.7042 21.9931C13.0243 24.6612 8.68254 24.6778 6.0069 21.9902C3.33886 19.3103 3.32224 14.9685 6.00982 12.2929C6.37311 11.9312 6.96081 11.9325 7.32248 12.2958Z" fill="#232323"/>
<path fill-rule="evenodd" clip-rule="evenodd" d="M20.603 7.39977C18.539 5.34453 15.2077 5.34026 13.1597 7.39697C11.1063 9.4592 11.1083 12.7916 13.1583 14.8417C13.5208 15.2042 13.5208 15.7919 13.1583 16.1543C12.7958 16.5168 12.2081 16.5168 11.8457 16.1543C9.06911 13.3778 9.07111 8.87211 11.8443 6.08711C14.6229 3.29659 19.1297 3.31294 21.9129 6.08431C24.7034 8.86296 24.6871 13.3697 21.9157 16.1529C21.554 16.5162 20.9663 16.5174 20.603 16.1557C20.2398 15.794 20.2385 15.2063 20.6002 14.8431C22.6555 12.7791 22.6597 9.44773 20.603 7.39977Z" fill="#232323"/>
</svg>
