<svg width="114" height="19" viewBox="0 0 114 19" fill="none" xmlns="http://www.w3.org/2000/svg">
<path d="M4.492 13.104V18H0.292V1.968H4.492V7.776L8.932 1.968H13.612L8.068 8.76C7.604 9.368 7.332 9.928 7.252 10.44C7.188 10.952 7.268 11.392 7.492 11.76C7.716 12.112 8.068 12.392 8.548 12.6C9.044 12.792 9.62 12.888 10.276 12.888H13.54L12.796 18H10.684C9.9 18 9.156 17.84 8.452 17.52C7.748 17.184 7.148 16.736 6.652 16.176C6.172 15.6 5.828 14.936 5.62 14.184C5.412 13.416 5.412 12.6 5.62 11.736L4.492 13.104ZM21.3918 18.24C20.3038 18.24 19.2318 18.072 18.1758 17.736C17.1358 17.384 16.2078 16.864 15.3918 16.176C14.5758 15.472 13.9118 14.608 13.3998 13.584C12.9038 12.544 12.6558 11.344 12.6558 9.984C12.6558 8.56 12.9118 7.328 13.4238 6.288C13.9518 5.248 14.6318 4.392 15.4638 3.72C16.2958 3.048 17.2318 2.552 18.2718 2.232C19.3278 1.896 20.3838 1.728 21.4398 1.728C22.3678 1.728 23.2558 1.856 24.1038 2.112C24.9678 2.352 25.7358 2.704 26.4078 3.168C27.0798 3.616 27.6318 4.168 28.0638 4.824C28.5118 5.48 28.7838 6.208 28.8798 7.008H24.5598C24.4957 6.688 24.3598 6.408 24.1518 6.168C23.9438 5.928 23.6878 5.728 23.3838 5.568C23.0958 5.408 22.7678 5.288 22.3998 5.208C22.0478 5.112 21.6798 5.064 21.2958 5.064C20.7678 5.064 20.2398 5.16 19.7118 5.352C19.1838 5.528 18.7038 5.816 18.2718 6.216C17.8558 6.6 17.5118 7.104 17.2398 7.728C16.9838 8.352 16.8558 9.104 16.8558 9.984C16.8558 10.864 16.9758 11.616 17.2158 12.24C17.4718 12.864 17.8078 13.376 18.2238 13.776C18.6398 14.16 19.1118 14.448 19.6398 14.64C20.1678 14.816 20.7198 14.904 21.2958 14.904C21.6798 14.904 22.0478 14.864 22.3998 14.784C22.7678 14.688 23.0958 14.56 23.3838 14.4C23.6878 14.24 23.9438 14.04 24.1518 13.8C24.3598 13.544 24.4957 13.264 24.5598 12.96H28.8798C28.7358 13.728 28.4398 14.44 27.9918 15.096C27.5438 15.736 26.9838 16.296 26.3118 16.776C25.6558 17.24 24.9038 17.6 24.0558 17.856C23.2078 18.112 22.3198 18.24 21.3918 18.24ZM40.0913 13.584H40.4033L41.7233 5.424H45.3953L42.4433 18H38.7233L37.3073 11.904L35.8673 18H32.1473L29.1953 5.424H32.8673L34.1873 13.584H34.4993L35.7713 5.424H38.8193L40.0913 13.584ZM46.1826 5.424H50.0706L50.0466 18H46.1826V5.424ZM46.0626 2.784C46.0626 2.304 46.2546 1.888 46.6386 1.536C47.0226 1.168 47.5266 0.983999 48.1506 0.983999C48.7906 0.983999 49.2946 1.168 49.6626 1.536C50.0466 1.888 50.2386 2.304 50.2386 2.784C50.2386 3.296 50.0466 3.736 49.6626 4.104C49.2946 4.456 48.7906 4.632 48.1506 4.632C47.5266 4.632 47.0226 4.456 46.6386 4.104C46.2546 3.736 46.0626 3.296 46.0626 2.784ZM63.4979 9.288V18H59.6099V10.392C59.6099 9.736 59.4339 9.272 59.0819 9C58.7299 8.728 58.3139 8.592 57.8339 8.592C57.3859 8.592 56.9459 8.736 56.5139 9.024C56.0819 9.312 55.7379 9.632 55.4819 9.984V18H51.5939V5.424L55.2419 5.4L55.6979 8.4H56.0099C56.0099 7.824 56.1139 7.328 56.3219 6.912C56.5459 6.496 56.8259 6.16 57.1619 5.904C57.4979 5.648 57.8739 5.464 58.2899 5.352C58.7059 5.224 59.1139 5.16 59.5139 5.16C60.0259 5.16 60.5219 5.24 61.0019 5.4C61.4819 5.56 61.9059 5.808 62.2739 6.144C62.6419 6.48 62.9379 6.912 63.1619 7.44C63.3859 7.952 63.4979 8.568 63.4979 9.288ZM76.7401 9.288V18H72.8521V10.392C72.8521 9.736 72.6761 9.272 72.3241 9C71.9721 8.728 71.5561 8.592 71.0761 8.592C70.6281 8.592 70.1881 8.736 69.7561 9.024C69.3241 9.312 68.9801 9.632 68.7241 9.984V18H64.8361V5.424L68.4841 5.4L68.9401 8.4H69.2521C69.2521 7.824 69.3561 7.328 69.5641 6.912C69.7881 6.496 70.0681 6.16 70.4041 5.904C70.7401 5.648 71.1161 5.464 71.5321 5.352C71.9481 5.224 72.3561 5.16 72.7561 5.16C73.2681 5.16 73.7641 5.24 74.2441 5.4C74.7241 5.56 75.1481 5.808 75.5161 6.144C75.8841 6.48 76.1801 6.912 76.4041 7.44C76.6281 7.952 76.7401 8.568 76.7401 9.288ZM84.0543 5.16C85.1583 5.16 86.1263 5.336 86.9583 5.688C87.7903 6.04 88.4703 6.544 88.9983 7.2C89.5423 7.84 89.9183 8.616 90.1263 9.528C90.3503 10.44 90.3903 11.464 90.2463 12.6H81.4143C81.4943 13.048 81.6223 13.424 81.7983 13.728C81.9903 14.032 82.2063 14.28 82.4463 14.472C82.7023 14.664 82.9663 14.8 83.2383 14.88C83.5263 14.96 83.8143 15 84.1023 15C84.5983 15 85.0383 14.912 85.4223 14.736C85.8063 14.544 86.0303 14.328 86.0943 14.088H90.0543C89.7983 14.872 89.4383 15.528 88.9743 16.056C88.5263 16.584 88.0303 17.008 87.4863 17.328C86.9583 17.648 86.4063 17.88 85.8303 18.024C85.2543 18.168 84.7263 18.24 84.2463 18.24C83.3503 18.24 82.5023 18.112 81.7023 17.856C80.9183 17.6 80.2303 17.208 79.6383 16.68C79.0463 16.152 78.5743 15.48 78.2223 14.664C77.8863 13.832 77.7183 12.84 77.7183 11.688C77.7183 10.632 77.8783 9.704 78.1982 8.904C78.5183 8.088 78.9583 7.408 79.5183 6.864C80.0943 6.304 80.7663 5.88 81.5343 5.592C82.3183 5.304 83.1583 5.16 84.0543 5.16ZM86.6463 10.2V10.056C86.6463 9.448 86.4063 8.968 85.9263 8.616C85.4463 8.264 84.8863 8.088 84.2463 8.088C82.7423 8.088 81.8223 8.792 81.4863 10.2H86.6463ZM95.2324 7.272C95.3444 6.664 95.6324 6.16 96.0964 5.76C96.5604 5.36 97.1924 5.16 97.9924 5.16C98.5684 5.16 99.0404 5.304 99.4084 5.592C99.7924 5.864 100.072 6.208 100.248 6.624C100.44 7.04 100.536 7.488 100.536 7.968C100.536 8.448 100.44 8.896 100.248 9.312C100.056 9.728 99.7684 10.08 99.3844 10.368C99.0164 10.64 98.5524 10.776 97.9924 10.776C97.3204 10.776 96.7444 10.6 96.2644 10.248C95.8004 9.88 95.5684 9.336 95.5684 8.616H95.2084L95.2324 18H91.3204V5.424H94.9684L95.2324 7.272ZM105.143 9.096C105.143 9.336 105.335 9.528 105.719 9.672C106.119 9.8 106.615 9.92 107.207 10.032C107.799 10.144 108.439 10.28 109.127 10.44C109.815 10.584 110.455 10.792 111.047 11.064C111.639 11.32 112.127 11.672 112.511 12.12C112.911 12.552 113.111 13.12 113.111 13.824C113.111 14.624 112.935 15.304 112.583 15.864C112.231 16.424 111.759 16.888 111.167 17.256C110.591 17.608 109.927 17.864 109.175 18.024C108.423 18.184 107.647 18.264 106.847 18.264C106.255 18.264 105.663 18.224 105.071 18.144C104.495 18.064 103.935 17.952 103.391 17.808C102.863 17.648 102.367 17.456 101.903 17.232C101.439 17.008 101.039 16.76 100.703 16.488L103.271 13.656C103.399 13.848 103.583 14.032 103.823 14.208C104.079 14.384 104.375 14.536 104.711 14.664C105.047 14.792 105.407 14.896 105.791 14.976C106.191 15.056 106.583 15.096 106.967 15.096C107.255 15.096 107.543 15.064 107.831 15C108.119 14.936 108.375 14.856 108.599 14.76C108.823 14.664 108.999 14.552 109.127 14.424C109.271 14.296 109.343 14.176 109.343 14.064C109.343 13.84 109.135 13.672 108.719 13.56C108.319 13.448 107.815 13.344 107.207 13.248C106.599 13.136 105.935 13.008 105.215 12.864C104.495 12.72 103.831 12.504 103.223 12.216C102.615 11.928 102.103 11.544 101.687 11.064C101.287 10.584 101.087 9.96 101.087 9.192C101.087 8.472 101.255 7.864 101.591 7.368C101.927 6.856 102.367 6.44 102.911 6.12C103.471 5.784 104.103 5.544 104.807 5.4C105.511 5.24 106.239 5.16 106.991 5.16C107.615 5.16 108.231 5.208 108.839 5.304C109.463 5.4 110.047 5.536 110.591 5.712C111.151 5.888 111.647 6.104 112.079 6.36C112.527 6.6 112.879 6.88 113.135 7.2L110.759 9.744C110.631 9.568 110.439 9.392 110.183 9.216C109.927 9.024 109.631 8.848 109.295 8.688C108.959 8.528 108.599 8.4 108.215 8.304C107.831 8.192 107.447 8.136 107.063 8.136C106.663 8.136 106.335 8.168 106.079 8.232C105.839 8.296 105.647 8.376 105.503 8.472C105.359 8.568 105.263 8.672 105.215 8.784C105.167 8.896 105.143 9 105.143 9.096Z" fill="#114E1E"/>
</svg>
