<svg width="24" height="25" viewBox="0 0 24 25" fill="none" xmlns="http://www.w3.org/2000/svg">
<path d="M14.7 22.8437H9.3C4.36 22.8437 2.26 20.7337 2.26 15.8037V11.3137C2.26 10.9037 2.6 10.5637 3.01 10.5637C3.42 10.5637 3.76 10.9037 3.76 11.3137V15.8037C3.76 19.8937 5.21 21.3437 9.3 21.3437H14.69C18.78 21.3437 20.23 19.8937 20.23 15.8037V11.3137C20.23 10.9037 20.57 10.5637 20.98 10.5637C21.39 10.5637 21.73 10.9037 21.73 11.3137V15.8037C21.74 20.7337 19.63 22.8437 14.7 22.8437Z" fill="white"/>
<path d="M12 12.8438C10.9 12.8438 9.9 12.4137 9.19 11.6237C8.48 10.8337 8.15 9.80375 8.26 8.70375L8.93 2.02375C8.97 1.64375 9.29 1.34375 9.68 1.34375H14.35C14.74 1.34375 15.06 1.63375 15.1 2.02375L15.77 8.70375C15.88 9.80375 15.55 10.8337 14.84 11.6237C14.1 12.4137 13.1 12.8438 12 12.8438ZM10.35 2.84375L9.75 8.85375C9.68 9.52375 9.88 10.1538 10.3 10.6138C11.15 11.5538 12.85 11.5538 13.7 10.6138C14.12 10.1438 14.32 9.51375 14.25 8.85375L13.65 2.84375H10.35Z" fill="white"/>
<path d="M18.31 12.8438C16.28 12.8438 14.47 11.2038 14.26 9.18375L13.56 2.17375C13.54 1.96375 13.61 1.75375 13.75 1.59375C13.89 1.43375 14.09 1.34375 14.31 1.34375H17.36C20.3 1.34375 21.67 2.57375 22.08 5.59375L22.36 8.37375C22.48 9.55375 22.12 10.6737 21.35 11.5238C20.58 12.3738 19.5 12.8438 18.31 12.8438ZM15.14 2.84375L15.76 9.03375C15.89 10.2837 17.05 11.3438 18.31 11.3438C19.07 11.3438 19.75 11.0538 20.24 10.5238C20.72 9.99375 20.94 9.28375 20.87 8.52375L20.59 5.77375C20.28 3.51375 19.55 2.84375 17.36 2.84375H15.14Z" fill="white"/>
<path d="M5.64 12.8438C4.45 12.8438 3.37 12.3738 2.6 11.5238C1.83 10.6737 1.47 9.55375 1.59 8.37375L1.86 5.62375C2.28 2.57375 3.65 1.34375 6.59 1.34375H9.64C9.85 1.34375 10.05 1.43375 10.2 1.59375C10.35 1.75375 10.41 1.96375 10.39 2.17375L9.69 9.18375C9.48 11.2038 7.67 12.8438 5.64 12.8438ZM6.59 2.84375C4.4 2.84375 3.67 3.50375 3.35 5.79375L3.08 8.52375C3 9.28375 3.23 9.99375 3.71 10.5238C4.19 11.0538 4.87 11.3438 5.64 11.3438C6.9 11.3438 8.07 10.2837 8.19 9.03375L8.81 2.84375H6.59Z" fill="white"/>
<path d="M14.5 22.8438H9.5C9.09 22.8438 8.75 22.5037 8.75 22.0938V19.5938C8.75 17.4938 9.9 16.3438 12 16.3438C14.1 16.3438 15.25 17.4938 15.25 19.5938V22.0938C15.25 22.5037 14.91 22.8438 14.5 22.8438ZM10.25 21.3438H13.75V19.5938C13.75 18.3338 13.26 17.8438 12 17.8438C10.74 17.8438 10.25 18.3338 10.25 19.5938V21.3438Z" fill="white"/>
</svg>
