<svg width="23" height="23" viewBox="0 0 23 23" fill="none" xmlns="http://www.w3.org/2000/svg">
<g clip-path="url(#clip0_175_51)">
<path fill-rule="evenodd" clip-rule="evenodd" d="M12.305 2.47584C12.0367 2.46854 11.7684 2.46471 11.5 2.46434C9.78322 2.46434 8.08944 2.61877 6.40222 2.80605C5.47931 2.91322 4.61983 3.32953 3.9636 3.98725C3.30736 4.64498 2.893 5.50541 2.78794 6.42855C2.60886 8.10427 2.46429 9.79148 2.46429 11.5001C2.46429 13.2086 2.60886 14.8958 2.78794 16.5716C2.893 17.4947 3.30736 18.3551 3.9636 19.0129C4.61983 19.6706 5.47931 20.0869 6.40222 20.1941C8.08944 20.3813 9.78322 20.5358 11.5 20.5358C11.7694 20.5358 12.0378 20.5319 12.305 20.5243V2.47584ZM11.5 0.410767C13.3318 0.410767 15.1176 0.575052 16.8229 0.763981C18.2111 0.922469 19.5045 1.54757 20.4912 2.53694C21.4779 3.52632 22.0994 4.82135 22.2542 6.21005C22.4349 7.90712 22.5893 9.68141 22.5893 11.5001C22.5893 13.3187 22.4349 15.093 22.2542 16.7901C22.0992 18.1782 21.4777 19.4727 20.4913 20.4617C19.505 21.4507 18.2122 22.0757 16.8245 22.2345C15.1176 22.4251 13.3318 22.5893 11.5 22.5893C9.66822 22.5893 7.88244 22.4251 6.17715 22.2361C4.78863 22.0776 3.49509 21.4522 2.50837 20.4625C1.52165 19.4728 0.900228 18.1774 0.745864 16.7884C0.565149 15.0946 0.410721 13.3203 0.410721 11.5001C0.410721 9.67977 0.565149 7.90712 0.745864 6.21005C0.900506 4.8216 1.52185 3.52676 2.50821 2.53741C3.49457 1.54807 4.78753 0.922817 6.17551 0.763981C7.88244 0.575052 9.66822 0.410767 11.5 0.410767ZM15.525 5.84862H18.4822C18.7 5.84862 18.9089 5.93517 19.063 6.08922C19.217 6.24326 19.3036 6.4522 19.3036 6.67005C19.3036 6.88791 19.217 7.09684 19.063 7.25089C18.9089 7.40494 18.7 7.49148 18.4822 7.49148H15.525C15.3072 7.49148 15.0982 7.40494 14.9442 7.25089C14.7901 7.09684 14.7036 6.88791 14.7036 6.67005C14.7036 6.4522 14.7901 6.24326 14.9442 6.08922C15.0982 5.93517 15.3072 5.84862 15.525 5.84862ZM18.4822 9.87362H15.525C15.3072 9.87362 15.0982 9.96017 14.9442 10.1142C14.7901 10.2683 14.7036 10.4772 14.7036 10.6951C14.7036 10.9129 14.7901 11.1218 14.9442 11.2759C15.0982 11.4299 15.3072 11.5165 15.525 11.5165H18.4822C18.7 11.5165 18.9089 11.4299 19.063 11.2759C19.217 11.1218 19.3036 10.9129 19.3036 10.6951C19.3036 10.4772 19.217 10.2683 19.063 10.1142C18.9089 9.96017 18.7 9.87362 18.4822 9.87362Z" fill="#626262"/>
</g>
<defs>
<clipPath id="clip0_175_51">
<rect width="23" height="23" fill="white"/>
</clipPath>
</defs>
</svg>
