<svg width="20" height="20" viewBox="0 0 20 20" fill="none" xmlns="http://www.w3.org/2000/svg">
<path d="M12.9167 0H12.3433C12.0118 0 11.6939 0.131696 11.4594 0.366116C11.225 0.600537 11.0933 0.918479 11.0933 1.25C11.0974 1.39617 11.0721 1.54167 11.0189 1.6779C10.9658 1.81413 10.8858 1.93832 10.7839 2.04314C10.6819 2.14795 10.56 2.23127 10.4253 2.28816C10.2906 2.34505 10.1458 2.37436 9.99958 2.37436C9.85335 2.37436 9.70861 2.34505 9.5739 2.28816C9.43919 2.23127 9.31725 2.14795 9.21529 2.04314C9.11333 1.93832 9.03341 1.81413 8.98026 1.6779C8.9271 1.54167 8.9018 1.39617 8.90583 1.25C8.90583 0.918479 8.77414 0.600537 8.53972 0.366116C8.3053 0.131696 7.98735 0 7.65583 0L7.08333 0C5.86816 0.00132347 4.70314 0.484634 3.84389 1.34389C2.98463 2.20314 2.50132 3.36816 2.5 4.58333V17.0833C2.5 17.8569 2.80729 18.5987 3.35427 19.1457C3.90125 19.6927 4.64312 20 5.41667 20H7.65583C7.98735 20 8.3053 19.8683 8.53972 19.6339C8.77414 19.3995 8.90583 19.0815 8.90583 18.75C8.9018 18.6038 8.9271 18.4583 8.98026 18.3221C9.03341 18.1859 9.11333 18.0617 9.21529 17.9569C9.31725 17.852 9.43919 17.7687 9.5739 17.7118C9.70861 17.655 9.85335 17.6256 9.99958 17.6256C10.1458 17.6256 10.2906 17.655 10.4253 17.7118C10.56 17.7687 10.6819 17.852 10.7839 17.9569C10.8858 18.0617 10.9658 18.1859 11.0189 18.3221C11.0721 18.4583 11.0974 18.6038 11.0933 18.75C11.0933 19.0815 11.225 19.3995 11.4594 19.6339C11.6939 19.8683 12.0118 20 12.3433 20H14.5833C15.3569 20 16.0987 19.6927 16.6457 19.1457C17.1927 18.5987 17.5 17.8569 17.5 17.0833V4.58333C17.4987 3.36816 17.0154 2.20314 16.1561 1.34389C15.2969 0.484634 14.1318 0.00132347 12.9167 0ZM14.5833 17.5H13.375C13.1266 16.8037 12.6689 16.2013 12.0647 15.7753C11.4605 15.3493 10.7393 15.1207 10 15.1207C9.26072 15.1207 8.53953 15.3493 7.93531 15.7753C7.33109 16.2013 6.8734 16.8037 6.625 17.5H5.41667C5.30616 17.5 5.20018 17.4561 5.12204 17.378C5.0439 17.2998 5 17.1938 5 17.0833V13.3333H5.41667C5.74819 13.3333 6.06613 13.2016 6.30055 12.9672C6.53497 12.7328 6.66667 12.4149 6.66667 12.0833C6.66667 11.7518 6.53497 11.4339 6.30055 11.1994C6.06613 10.965 5.74819 10.8333 5.41667 10.8333H5V4.58333C5.00007 4.10743 5.16308 3.64589 5.46191 3.2755C5.76074 2.90512 6.17737 2.6482 6.6425 2.5475C6.89775 3.23203 7.35614 3.82218 7.95623 4.23886C8.55632 4.65554 9.26943 4.87885 10 4.87885C10.7306 4.87885 11.4437 4.65554 12.0438 4.23886C12.6439 3.82218 13.1022 3.23203 13.3575 2.5475C13.8226 2.6482 14.2393 2.90512 14.5381 3.2755C14.8369 3.64589 14.9999 4.10743 15 4.58333V10.8333H14.5833C14.2518 10.8333 13.9339 10.965 13.6995 11.1994C13.465 11.4339 13.3333 11.7518 13.3333 12.0833C13.3333 12.4149 13.465 12.7328 13.6995 12.9672C13.9339 13.2016 14.2518 13.3333 14.5833 13.3333H15V17.0833C15 17.1938 14.9561 17.2998 14.878 17.378C14.7998 17.4561 14.6938 17.5 14.5833 17.5Z" fill="#747474"/>
<path d="M10.4166 10.834H9.58325C8.8929 10.834 8.33325 11.3936 8.33325 12.084C8.33325 12.7743 8.8929 13.334 9.58325 13.334H10.4166C11.1069 13.334 11.6666 12.7743 11.6666 12.084C11.6666 11.3936 11.1069 10.834 10.4166 10.834Z" fill="#747474"/>
</svg>
