<svg width="24" height="25" viewBox="0 0 24 25" fill="none" xmlns="http://www.w3.org/2000/svg">
<path d="M17.74 22.8438H6.26C3.77 22.8438 1.75 20.8237 1.75 18.3337V11.6038C1.75 9.11376 3.77 7.09375 6.26 7.09375H17.74C20.23 7.09375 22.25 9.11376 22.25 11.6038V13.0438C22.25 13.4538 21.91 13.7938 21.5 13.7938H19.48C19.13 13.7938 18.81 13.9238 18.58 14.1638L18.57 14.1738C18.29 14.4438 18.16 14.8137 18.19 15.1937C18.25 15.8537 18.88 16.3837 19.6 16.3837H21.5C21.91 16.3837 22.25 16.7237 22.25 17.1337V18.3237C22.25 20.8237 20.23 22.8438 17.74 22.8438ZM6.26 8.59375C4.6 8.59375 3.25 9.94376 3.25 11.6038V18.3337C3.25 19.9937 4.6 21.3438 6.26 21.3438H17.74C19.4 21.3438 20.75 19.9937 20.75 18.3337V17.8937H19.6C18.09 17.8937 16.81 16.7737 16.69 15.3337C16.61 14.5137 16.91 13.7038 17.51 13.1138C18.03 12.5838 18.73 12.2938 19.48 12.2938H20.75V11.6038C20.75 9.94376 19.4 8.59375 17.74 8.59375H6.26Z" fill="white"/>
<path d="M2.5 13.2538C2.09 13.2538 1.75 12.9138 1.75 12.5038V7.93381C1.75 6.44381 2.69 5.09376 4.08 4.56376L12.02 1.56376C12.84 1.25376 13.75 1.3638 14.46 1.8638C15.18 2.3638 15.6 3.1738 15.6 4.0438V7.84378C15.6 8.25378 15.26 8.59378 14.85 8.59378C14.44 8.59378 14.1 8.25378 14.1 7.84378V4.0438C14.1 3.6638 13.92 3.31378 13.6 3.09378C13.28 2.87378 12.9 2.82378 12.54 2.96378L4.6 5.96378C3.79 6.27378 3.24 7.06381 3.24 7.93381V12.5038C3.25 12.9238 2.91 13.2538 2.5 13.2538Z" fill="white"/>
<path d="M19.6 17.8937C18.09 17.8937 16.81 16.7737 16.69 15.3337C16.61 14.5037 16.91 13.6937 17.51 13.1037C18.02 12.5837 18.72 12.2937 19.47 12.2937H21.55C22.54 12.3237 23.3 13.1037 23.3 14.0637V16.1237C23.3 17.0837 22.54 17.8637 21.58 17.8937H19.6ZM21.53 13.7937H19.48C19.13 13.7937 18.81 13.9237 18.58 14.1637C18.29 14.4437 18.15 14.8237 18.19 15.2037C18.25 15.8637 18.88 16.3937 19.6 16.3937H21.56C21.69 16.3937 21.81 16.2737 21.81 16.1237V14.0637C21.81 13.9137 21.69 13.8037 21.53 13.7937Z" fill="white"/>
<path d="M14 12.8438H7C6.59 12.8438 6.25 12.5037 6.25 12.0938C6.25 11.6838 6.59 11.3438 7 11.3438H14C14.41 11.3438 14.75 11.6838 14.75 12.0938C14.75 12.5037 14.41 12.8438 14 12.8438Z" fill="white"/>
</svg>
