<svg width="8" height="14" viewBox="0 0 8 14" fill="none" xmlns="http://www.w3.org/2000/svg">
<path fill-rule="evenodd" clip-rule="evenodd" d="M7.70701 6.29306C7.89448 6.48059 7.99979 6.73489 7.99979 7.00006C7.99979 7.26522 7.89448 7.51953 7.70701 7.70706L2.05001 13.3641C1.95776 13.4596 1.84742 13.5358 1.72541 13.5882C1.60341 13.6406 1.47219 13.6682 1.33941 13.6693C1.20663 13.6705 1.07495 13.6452 0.952054 13.5949C0.829157 13.5446 0.717505 13.4703 0.623612 13.3765C0.529719 13.2826 0.455466 13.1709 0.405185 13.048C0.354904 12.9251 0.329603 12.7934 0.330757 12.6607C0.331911 12.5279 0.359497 12.3967 0.411906 12.2747C0.464315 12.1526 0.540497 12.0423 0.636007 11.9501L5.58601 7.00006L0.636007 2.05006C0.453849 1.86146 0.353055 1.60885 0.355333 1.34666C0.357611 1.08446 0.46278 0.833648 0.648188 0.64824C0.833596 0.462832 1.08441 0.357663 1.34661 0.355384C1.6088 0.353106 1.86141 0.4539 2.05001 0.636058L7.70701 6.29306Z" fill="white"/>
</svg>
