<svg width="24" height="25" viewBox="0 0 24 25" fill="none" xmlns="http://www.w3.org/2000/svg">
<path d="M17.79 22.8437H6.21C3.47 22.8437 1.25 20.6137 1.25 17.8737V10.4637C1.25 9.10372 2.09 7.39372 3.17 6.55372L8.56 2.35372C10.18 1.09372 12.77 1.03372 14.45 2.21372L20.63 6.54372C21.82 7.37372 22.75 9.15372 22.75 10.6037V17.8837C22.75 20.6137 20.53 22.8437 17.79 22.8437ZM9.48 3.53372L4.09 7.73372C3.38 8.29372 2.75 9.56372 2.75 10.4637V17.8737C2.75 19.7837 4.3 21.3437 6.21 21.3437H17.79C19.7 21.3437 21.25 19.7937 21.25 17.8837V10.6037C21.25 9.64372 20.56 8.31372 19.77 7.77372L13.59 3.44372C12.45 2.64372 10.57 2.68372 9.48 3.53372Z" fill="white"/>
<path d="M12 18.8438C11.59 18.8438 11.25 18.5037 11.25 18.0938V15.0938C11.25 14.6838 11.59 14.3438 12 14.3438C12.41 14.3438 12.75 14.6838 12.75 15.0938V18.0938C12.75 18.5037 12.41 18.8438 12 18.8438Z" fill="white"/>
</svg>
