<svg width="115" height="19" viewBox="0 0 115 19" fill="none" xmlns="http://www.w3.org/2000/svg">
<path d="M4.992 13.104V18H0.792V1.968H4.992V7.776L9.432 1.968H14.112L8.568 8.76C8.104 9.368 7.832 9.928 7.752 10.44C7.688 10.952 7.768 11.392 7.992 11.76C8.216 12.112 8.568 12.392 9.048 12.6C9.544 12.792 10.12 12.888 10.776 12.888H14.04L13.296 18H11.184C10.4 18 9.656 17.84 8.952 17.52C8.248 17.184 7.648 16.736 7.152 16.176C6.672 15.6 6.328 14.936 6.12 14.184C5.912 13.416 5.912 12.6 6.12 11.736L4.992 13.104ZM21.8918 18.24C20.8038 18.24 19.7318 18.072 18.6758 17.736C17.6358 17.384 16.7078 16.864 15.8918 16.176C15.0758 15.472 14.4118 14.608 13.8998 13.584C13.4038 12.544 13.1558 11.344 13.1558 9.984C13.1558 8.56 13.4118 7.328 13.9238 6.288C14.4518 5.248 15.1318 4.392 15.9638 3.72C16.7958 3.048 17.7318 2.552 18.7718 2.232C19.8278 1.896 20.8838 1.728 21.9398 1.728C22.8678 1.728 23.7558 1.856 24.6038 2.112C25.4678 2.352 26.2358 2.704 26.9078 3.168C27.5798 3.616 28.1318 4.168 28.5638 4.824C29.0118 5.48 29.2838 6.208 29.3798 7.008H25.0598C24.9957 6.688 24.8598 6.408 24.6518 6.168C24.4438 5.928 24.1878 5.728 23.8838 5.568C23.5958 5.408 23.2678 5.288 22.8998 5.208C22.5478 5.112 22.1798 5.064 21.7958 5.064C21.2678 5.064 20.7398 5.16 20.2118 5.352C19.6838 5.528 19.2038 5.816 18.7718 6.216C18.3558 6.6 18.0118 7.104 17.7398 7.728C17.4838 8.352 17.3558 9.104 17.3558 9.984C17.3558 10.864 17.4758 11.616 17.7158 12.24C17.9718 12.864 18.3078 13.376 18.7238 13.776C19.1398 14.16 19.6118 14.448 20.1398 14.64C20.6678 14.816 21.2198 14.904 21.7958 14.904C22.1798 14.904 22.5478 14.864 22.8998 14.784C23.2678 14.688 23.5958 14.56 23.8838 14.4C24.1878 14.24 24.4438 14.04 24.6518 13.8C24.8598 13.544 24.9957 13.264 25.0598 12.96H29.3798C29.2358 13.728 28.9398 14.44 28.4918 15.096C28.0438 15.736 27.4838 16.296 26.8118 16.776C26.1558 17.24 25.4038 17.6 24.5558 17.856C23.7078 18.112 22.8198 18.24 21.8918 18.24ZM44.3991 13.776C44.2871 14.48 44.1031 15.096 43.8471 15.624C43.6071 16.152 43.3271 16.592 43.0071 16.944C42.6871 17.296 42.3351 17.56 41.9511 17.736C41.5671 17.912 41.1831 18 40.7991 18C40.1271 18 39.4951 17.696 38.9031 17.088C38.3111 16.48 37.8871 15.472 37.6311 14.064L36.8151 18H32.3751L29.0391 1.968H32.9751L34.2471 12.792L36.4551 1.968H40.1751L38.1351 11.688C38.1671 12.456 38.3191 13.072 38.5911 13.536C38.8631 14 39.1751 14.232 39.5271 14.232C39.8631 14.232 40.1911 13.984 40.5111 13.488C40.8311 12.976 41.0711 12.128 41.2311 10.944L42.4551 1.968H46.3911L44.3991 13.776ZM47.1748 5.424H51.0628L51.0388 18H47.1748V5.424ZM47.0548 2.784C47.0548 2.304 47.2468 1.888 47.6308 1.536C48.0148 1.168 48.5188 0.983999 49.1428 0.983999C49.7828 0.983999 50.2868 1.168 50.6548 1.536C51.0388 1.888 51.2308 2.304 51.2308 2.784C51.2308 3.296 51.0388 3.736 50.6548 4.104C50.2868 4.456 49.7828 4.632 49.1428 4.632C48.5188 4.632 48.0148 4.456 47.6308 4.104C47.2468 3.736 47.0548 3.296 47.0548 2.784ZM64.4901 9.288V18H60.6021V10.392C60.6021 9.736 60.4261 9.272 60.0741 9C59.7221 8.728 59.3061 8.592 58.8261 8.592C58.3781 8.592 57.9381 8.736 57.5061 9.024C57.0741 9.312 56.7301 9.632 56.4741 9.984V18H52.5861V5.424L56.2341 5.4L56.6901 8.4H57.0021C57.0021 7.824 57.1061 7.328 57.3141 6.912C57.5381 6.496 57.8181 6.16 58.1541 5.904C58.4901 5.648 58.8661 5.464 59.2821 5.352C59.6981 5.224 60.1061 5.16 60.5061 5.16C61.0181 5.16 61.5141 5.24 61.9941 5.4C62.4741 5.56 62.8981 5.808 63.2661 6.144C63.6341 6.48 63.9301 6.912 64.1541 7.44C64.3781 7.952 64.4901 8.568 64.4901 9.288ZM77.7323 9.288V18H73.8443V10.392C73.8443 9.736 73.6683 9.272 73.3163 9C72.9643 8.728 72.5483 8.592 72.0683 8.592C71.6203 8.592 71.1803 8.736 70.7483 9.024C70.3163 9.312 69.9723 9.632 69.7163 9.984V18H65.8283V5.424L69.4763 5.4L69.9323 8.4H70.2443C70.2443 7.824 70.3483 7.328 70.5563 6.912C70.7803 6.496 71.0603 6.16 71.3963 5.904C71.7323 5.648 72.1083 5.464 72.5243 5.352C72.9403 5.224 73.3483 5.16 73.7483 5.16C74.2603 5.16 74.7563 5.24 75.2363 5.4C75.7163 5.56 76.1403 5.808 76.5083 6.144C76.8763 6.48 77.1723 6.912 77.3963 7.44C77.6203 7.952 77.7323 8.568 77.7323 9.288ZM85.0464 5.16C86.1504 5.16 87.1184 5.336 87.9504 5.688C88.7824 6.04 89.4624 6.544 89.9904 7.2C90.5344 7.84 90.9104 8.616 91.1184 9.528C91.3424 10.44 91.3824 11.464 91.2384 12.6H82.4064C82.4864 13.048 82.6144 13.424 82.7904 13.728C82.9824 14.032 83.1984 14.28 83.4384 14.472C83.6944 14.664 83.9584 14.8 84.2304 14.88C84.5184 14.96 84.8064 15 85.0944 15C85.5904 15 86.0304 14.912 86.4144 14.736C86.7984 14.544 87.0224 14.328 87.0864 14.088H91.0464C90.7904 14.872 90.4304 15.528 89.9664 16.056C89.5184 16.584 89.0224 17.008 88.4784 17.328C87.9504 17.648 87.3984 17.88 86.8224 18.024C86.2464 18.168 85.7184 18.24 85.2384 18.24C84.3424 18.24 83.4944 18.112 82.6944 17.856C81.9104 17.6 81.2224 17.208 80.6304 16.68C80.0384 16.152 79.5664 15.48 79.2144 14.664C78.8784 13.832 78.7104 12.84 78.7104 11.688C78.7104 10.632 78.8704 9.704 79.1904 8.904C79.5104 8.088 79.9504 7.408 80.5104 6.864C81.0864 6.304 81.7584 5.88 82.5264 5.592C83.3104 5.304 84.1504 5.16 85.0464 5.16ZM87.6384 10.2V10.056C87.6384 9.448 87.3984 8.968 86.9184 8.616C86.4384 8.264 85.8784 8.088 85.2384 8.088C83.7344 8.088 82.8144 8.792 82.4784 10.2H87.6384ZM96.2246 7.272C96.3366 6.664 96.6246 6.16 97.0886 5.76C97.5526 5.36 98.1846 5.16 98.9846 5.16C99.5606 5.16 100.033 5.304 100.401 5.592C100.785 5.864 101.065 6.208 101.241 6.624C101.433 7.04 101.529 7.488 101.529 7.968C101.529 8.448 101.433 8.896 101.241 9.312C101.049 9.728 100.761 10.08 100.377 10.368C100.009 10.64 99.5446 10.776 98.9846 10.776C98.3126 10.776 97.7366 10.6 97.2566 10.248C96.7926 9.88 96.5606 9.336 96.5606 8.616H96.2006L96.2246 18H92.3126V5.424H95.9606L96.2246 7.272ZM106.135 9.096C106.135 9.336 106.327 9.528 106.711 9.672C107.111 9.8 107.607 9.92 108.199 10.032C108.791 10.144 109.431 10.28 110.119 10.44C110.807 10.584 111.447 10.792 112.039 11.064C112.631 11.32 113.119 11.672 113.503 12.12C113.903 12.552 114.103 13.12 114.103 13.824C114.103 14.624 113.927 15.304 113.575 15.864C113.223 16.424 112.751 16.888 112.159 17.256C111.583 17.608 110.919 17.864 110.167 18.024C109.415 18.184 108.639 18.264 107.839 18.264C107.247 18.264 106.655 18.224 106.063 18.144C105.487 18.064 104.927 17.952 104.383 17.808C103.855 17.648 103.359 17.456 102.895 17.232C102.431 17.008 102.031 16.76 101.695 16.488L104.263 13.656C104.391 13.848 104.575 14.032 104.815 14.208C105.071 14.384 105.367 14.536 105.703 14.664C106.039 14.792 106.399 14.896 106.783 14.976C107.183 15.056 107.575 15.096 107.959 15.096C108.247 15.096 108.535 15.064 108.823 15C109.111 14.936 109.367 14.856 109.591 14.76C109.815 14.664 109.991 14.552 110.119 14.424C110.263 14.296 110.335 14.176 110.335 14.064C110.335 13.84 110.127 13.672 109.711 13.56C109.311 13.448 108.807 13.344 108.199 13.248C107.591 13.136 106.927 13.008 106.207 12.864C105.487 12.72 104.823 12.504 104.215 12.216C103.607 11.928 103.095 11.544 102.679 11.064C102.279 10.584 102.079 9.96 102.079 9.192C102.079 8.472 102.247 7.864 102.583 7.368C102.919 6.856 103.359 6.44 103.903 6.12C104.463 5.784 105.095 5.544 105.799 5.4C106.503 5.24 107.231 5.16 107.983 5.16C108.607 5.16 109.223 5.208 109.831 5.304C110.455 5.4 111.039 5.536 111.583 5.712C112.143 5.888 112.639 6.104 113.071 6.36C113.519 6.6 113.871 6.88 114.127 7.2L111.751 9.744C111.623 9.568 111.431 9.392 111.175 9.216C110.919 9.024 110.623 8.848 110.287 8.688C109.951 8.528 109.591 8.4 109.207 8.304C108.823 8.192 108.439 8.136 108.055 8.136C107.655 8.136 107.327 8.168 107.071 8.232C106.831 8.296 106.639 8.376 106.495 8.472C106.351 8.568 106.255 8.672 106.207 8.784C106.159 8.896 106.135 9 106.135 9.096Z" fill="white"/>
</svg>
