<svg width="24" height="25" viewBox="0 0 24 25" fill="none" xmlns="http://www.w3.org/2000/svg">
<path d="M9.003 6.20916C9.003 5.4143 9.31875 4.65201 9.8808 4.08996C10.4428 3.52791 11.2051 3.21216 12 3.21216C12.7949 3.21216 13.5572 3.52791 14.1192 4.08996C14.6812 4.65201 14.997 5.4143 14.997 6.20916C14.997 7.00401 14.6812 7.76631 14.1192 8.32836C13.5572 8.8904 12.7949 9.20616 12 9.20616C11.2051 9.20616 10.4428 8.8904 9.8808 8.32836C9.31875 7.76631 9.003 7.00401 9.003 6.20916ZM12 4.71216C11.8034 4.71216 11.6087 4.75088 11.4271 4.82611C11.2455 4.90134 11.0805 5.01161 10.9415 5.15062C10.8025 5.28963 10.6922 5.45466 10.617 5.63628C10.5417 5.81791 10.503 6.01257 10.503 6.20916C10.503 6.40575 10.5417 6.60041 10.617 6.78203C10.6922 6.96366 10.8025 7.12869 10.9415 7.2677C11.0805 7.40671 11.2455 7.51697 11.4271 7.59221C11.6087 7.66744 11.8034 7.70616 12 7.70616C12.397 7.70616 12.7778 7.54844 13.0585 7.2677C13.3393 6.98696 13.497 6.60619 13.497 6.20916C13.497 5.81213 13.3393 5.43136 13.0585 5.15062C12.7778 4.86988 12.397 4.71216 12 4.71216ZM16.5 6.95916C16.5 6.66368 16.5582 6.3711 16.6713 6.09812C16.7843 5.82514 16.9501 5.5771 17.159 5.36817C17.3679 5.15924 17.616 4.9935 17.889 4.88043C18.1619 4.76736 18.4545 4.70916 18.75 4.70916C19.0455 4.70916 19.3381 4.76736 19.611 4.88043C19.884 4.9935 20.1321 5.15924 20.341 5.36817C20.5499 5.5771 20.7157 5.82514 20.8287 6.09812C20.9418 6.3711 21 6.66368 21 6.95916C21 7.5559 20.7629 8.12819 20.341 8.55015C19.919 8.97211 19.3467 9.20916 18.75 9.20916C18.1533 9.20916 17.581 8.97211 17.159 8.55015C16.7371 8.12819 16.5 7.5559 16.5 6.95916ZM18.75 6.20916C18.5511 6.20916 18.3603 6.28818 18.2197 6.42883C18.079 6.56948 18 6.76025 18 6.95916C18 7.15807 18.079 7.34884 18.2197 7.48949C18.3603 7.63014 18.5511 7.70916 18.75 7.70916C18.9489 7.70916 19.1397 7.63014 19.2803 7.48949C19.421 7.34884 19.5 7.15807 19.5 6.95916C19.5 6.76025 19.421 6.56948 19.2803 6.42883C19.1397 6.28818 18.9489 6.20916 18.75 6.20916ZM5.25 4.70916C4.65326 4.70916 4.08097 4.94621 3.65901 5.36817C3.23705 5.79012 3 6.36242 3 6.95916C3 7.5559 3.23705 8.12819 3.65901 8.55015C4.08097 8.97211 4.65326 9.20916 5.25 9.20916C5.84674 9.20916 6.41903 8.97211 6.84099 8.55015C7.26295 8.12819 7.5 7.5559 7.5 6.95916C7.5 6.36242 7.26295 5.79012 6.84099 5.36817C6.41903 4.94621 5.84674 4.70916 5.25 4.70916ZM4.5 6.95916C4.5 6.76025 4.57902 6.56948 4.71967 6.42883C4.86032 6.28818 5.05109 6.20916 5.25 6.20916C5.44891 6.20916 5.63968 6.28818 5.78033 6.42883C5.92098 6.56948 6 6.76025 6 6.95916C6 7.15807 5.92098 7.34884 5.78033 7.48949C5.63968 7.63014 5.44891 7.70916 5.25 7.70916C5.05109 7.70916 4.86032 7.63014 4.71967 7.48949C4.57902 7.34884 4.5 7.15807 4.5 6.95916ZM6.402 10.7092C6.13867 11.1652 6.00002 11.6825 6 12.2092H3V15.9592C2.99988 16.3323 3.09254 16.6995 3.26965 17.0279C3.44676 17.3563 3.70275 17.6355 4.01458 17.8404C4.32641 18.0452 4.6843 18.1693 5.05601 18.2015C5.42773 18.2337 5.80161 18.1729 6.144 18.0247C6.255 18.5212 6.429 18.9952 6.654 19.4377C6.0847 19.6675 5.46766 19.7541 4.85708 19.6898C4.24651 19.6254 3.66106 19.4122 3.15216 19.0687C2.64326 18.7253 2.22648 18.2621 1.93841 17.7199C1.65034 17.1777 1.4998 16.5731 1.5 15.9592V12.2092C1.5 11.8113 1.65804 11.4298 1.93934 11.1485C2.22064 10.8672 2.60218 10.7092 3 10.7092H6.402ZM17.346 19.4377C17.9153 19.6675 18.5323 19.7541 19.1429 19.6898C19.7535 19.6254 20.3389 19.4122 20.8478 19.0687C21.3567 18.7253 21.7735 18.2621 22.0616 17.7199C22.3497 17.1777 22.5002 16.5731 22.5 15.9592V12.2092C22.5 11.8113 22.342 11.4298 22.0607 11.1485C21.7794 10.8672 21.3978 10.7092 21 10.7092H17.598C17.853 11.1502 18 11.6617 18 12.2092H21V15.9592C21.0001 16.3323 20.9075 16.6995 20.7304 17.0279C20.5532 17.3563 20.2973 17.6355 19.9854 17.8404C19.6736 18.0452 19.3157 18.1693 18.944 18.2015C18.5723 18.2337 18.1984 18.1729 17.856 18.0247C17.742 18.5227 17.572 18.9937 17.346 19.4377ZM9 10.7077C8.60218 10.7077 8.22064 10.8657 7.93934 11.147C7.65804 11.4283 7.5 11.8098 7.5 12.2077V16.7092C7.5 17.9026 7.97411 19.0472 8.81802 19.8911C9.66193 20.7351 10.8065 21.2092 12 21.2092C13.1935 21.2092 14.3381 20.7351 15.182 19.8911C16.0259 19.0472 16.5 17.9026 16.5 16.7092V12.2092C16.5 11.8113 16.342 11.4298 16.0607 11.1485C15.7794 10.8672 15.3978 10.7092 15 10.7092L9 10.7077ZM9 12.2077H15V16.7092C15 17.5048 14.6839 18.2679 14.1213 18.8305C13.5587 19.3931 12.7956 19.7092 12 19.7092C11.2044 19.7092 10.4413 19.3931 9.87868 18.8305C9.31607 18.2679 9 17.5048 9 16.7092V12.2077Z" fill="white"/>
</svg>
